<?xml version="1.0" encoding="utf-8"?>
<!-- Generator: Adobe Illustrator 22.1.0, SVG Export Plug-In . SVG Version: 6.00 Build 0)  -->
<svg version="1.1" id="Layer_1" xmlns="http://www.w3.org/2000/svg" xmlns:xlink="http://www.w3.org/1999/xlink" x="0px" y="0px"
	 viewBox="0 0 1000 1000" style="enable-background:new 0 0 1000 1000;" xml:space="preserve">
<style type="text/css">
	.st0{fill:#0A2342;}
	.st1{fill:#B1B7BD;}
	.st2{fill:#C92032;}
	.st3{fill:#B0B7BD;}
</style>
<g>
	<path class="st0" d="M499.2,805c-7.6,0-11.7-0.2-11.9-0.2c-1.1,0-2.3,0-3.5,0c-97.2,0-176.2-21-225.4-38.6
		c-48.7-17.4-78.6-35.1-83.7-38.2c-65.5,18.5-106.8,36.1-107.2,36.3l-0.8,0.3l-51.1-22.1v-347l53.6-33l1.1,0.8
		c14.5,10.2,48.3,19.1,54.5,20.6c10.7-9.1,23-17.8,36.4-25.9v-9.9h-1.5l0.6-2.5c0.8-3.4,0.8-6.3,0.8-9.3v-1.9l1.9-0.1
		c0.5,0,1,0,1.5-0.1c1.4-0.1,2.6-0.1,3.9-0.3l0,0c-1.6-0.5-2.8-1.3-3.5-2.5c-0.9-1.5-0.9-3.5,0-5.7c1.1-3.1,3.1-3.8,4.6-3.8
		c0.5,0,1,0.1,1.5,0.2v-9.4l1.8-0.2c4.4-0.4,7.5-3.7,10.9-7.1c1.3-1.4,2.7-2.8,4.2-4c0.3-0.7,0.3-2.9,0.3-4v-0.9V296
		c0.1-6.3,0.3-6.8,4.4-11.6l1.4-1.7l1.5,1.6c3,3.1,4.9,6.3,4.6,11.9c-0.3,7.6-0.3,15.2-0.2,23.3c0,1.6,0,3.2,0,4.8
		c0.5-0.3,1-0.7,1.5-1.1c1.6-1.2,3.4-2.5,5.6-2.5c0.6,0,1.3,0.1,1.9,0.3v-9c0-1.7-0.1-3.5-0.1-5.3c-0.1-4.6-0.3-9.4,0-14.2
		c0.1-2,1.2-3.8,2.2-5.5c0.5-0.8,1-1.7,1.4-2.5l1.1-2.5l2,1.9c3.1,2.8,6.2,6.2,5.2,11.9c-0.7,4.1,0.3,6.7,3.3,8.4
		c1.4,0.8,2.5,2,3.5,3.1c0.7,0.7,1.4,1.4,2.1,2c1.2,0.9,2.5,1.6,4,2.5c1,0.6,2,1.2,3.2,1.9l0.4,0.3c0.5-2,0.7-4.2,0.5-6.4
		c-0.3-5-0.2-10-0.2-14.9c0-2.1,0.1-4.2,0.1-6.3c0-1.3,0.2-2.5,0.4-3.7c0.1-0.4,0.1-0.8,0.2-1.2l0.2-1.8h8.8v-22.6l1.4-0.4
		c0.7-0.2,1.3-0.4,1.9-0.6c0-0.4,0.1-0.7,0.1-1.1c0.1-0.8,0.1-1.6,0.2-2.4l0.1-1.9h35.5l0.1,1.9c0,0.7,0.1,1.4,0.2,2.1
		c0,0.5,0.1,1,0.1,1.5c0.5,0.2,1.1,0.4,1.8,0.6c0.2-9.1,0.3-18.5-0.3-27.6c-0.5-7.7,0.8-13,4.1-16.7c3.2-3.7,3.2-7.7,3.2-12.4
		c0-1.2,0-2.5,0.1-3.8c0-0.2,0-0.5,0-0.8s0-0.6,0-0.9c0-0.9,0.5-1.5,0.8-1.8c0.1-0.1,0.3-0.3,0.5-0.6l3.7-5.5v20.5h8.1v-14.8h5.2
		v12.3c0,1.7,0.5,2.7,1.6,4.7c3.4,5.7,5.2,10.8,5.3,15.2c0.4,17.8,0.4,35.7,0.3,53.1c0,5,0,10.1,0,15.1v1.5c0.7-0.3,1.2-0.5,1.3-0.8
		c0.4-0.5,0.4-2.2,0.4-4.6v-67.4c0-1.1-0.1-2.1-0.2-3.3c-0.1-0.9-0.2-1.8-0.2-2.7l-0.1-2.1h9v9.7h2c0-0.8-0.1-1.5-0.1-2.3
		c-0.1-1.7-0.2-3.5-0.2-5.3l-0.1-2.1h24.9v13.8h52.5c0-0.5,0.1-0.9,0.1-1.4c0.1-1.1,0.2-2.2,0.2-3.4l0.1-1.9h10v46.6
		c1.5,0.6,3.1,1.3,4.8,2v-80.7h39.3v50.2H485c0-6.2,0-12.3,0-18.4c0-7.3,0-14.6,0-21.9c0-0.3,0-0.7,0-1c-0.1-1.7-0.3-5,2.9-6.1
		c0-0.1,0-0.2,0-0.2c0.1-0.7,0.3-1.6,0.6-2.5l0.5-1.4h30.2l-0.6,2.5c0,0.1,0,0.2-0.1,0.2c0.1,0.1,0.2,0.2,0.2,0.2
		c0.7,0.7,1.5,1.5,2.1,2.6s1,2.8,1,4.3c0.1,5.6,0,11.2,0,17.1c0,2.3,0,4.7,0,7.1h18.9l0.1,1.9c0.1,1.5,0.2,3,0.2,4.4
		c0.2,2.9,0.3,5.6,0.5,8.5h6.2v38.4c0.4,0,0.7,0,1.1,0.1v-50.1l0.1-0.3c2-5.8,5.9-8.7,11.5-8.7c0.5,0,1.1,0,1.7,0.1
		c0.1-3.3,0.2-6.5,0.3-9.8c0.3-10.1,0.7-19.7,1.1-29.4l0.1-1.9h3.2c0.2-0.9,0.4-1.7,0.7-2.6c0.4-1.7,0.9-3.4,1.3-5.2l1.9-7.1l2,7.1
		c0.8,3,1.5,5.7,2.2,8.1h3.2l0.1,1.9c0.2,4.8,0.3,9.5,0.5,14.3c0.3,8.2,0.6,16.6,0.9,25c0.2,0,0.5,0,0.6,0s0.1,0,0.2,0
		c0.8-0.1,1.6-0.2,2.3-0.2c4.2,0,7.2,2.3,8.8,6.6c0.7,1.7,1,3.4,1,4.9c0.3,7.1,0.4,14.5,0.5,21.7c0,2.6-0.1,5.2-0.2,7.7
		c-0.1,1.6-0.1,3.2-0.2,4.8c0,0.7-0.1,1.5-0.2,2.2c-0.1,0.6-0.1,1.1-0.1,1.6v13.1c3.2,0.4,6.4,0.7,9.6,1.1
		c0.2-13.1,0.4-26.2,0.6-39.4c0.2-14.9,0.5-30.3,0.7-45.6v-2h25.4v27c0.6,0,1.2,0,1.8,0c1.3,0,2.5-0.1,3.7-0.1c1.4,0,2.7,0,3.8,0.1
		c3.7,0.4,7.3,1.1,11.1,1.9l3,0.6v40.7h13c0.2,0,0.4,0,0.6,0c0.3,0,0.6-0.1,0.9-0.1c2.1,0,3.5,1.1,4.1,3.4c0.4,0.1,0.9,0.3,1.3,0.4
		c0.7,0.2,1.5,0.4,2.3,0.7l1.3,0.5v24.8c0.1,0,0.3,0.1,0.4,0.1l1-25.7c0-1,0.3-2.1,0.6-3l0.2-0.5c1-3.5,2.1-7.1,3.1-10.5
		s2.1-7,3.1-10.5c0.2-0.7,0.4-1.4,0.5-2.2c0.1-0.5,0.2-1,0.3-1.5l1.6-7.4l2.3,7.3c1.5,4.7,2.9,9.3,4.3,13.9
		c1.3,4.2,2.6,8.4,3.9,12.7c1.1-0.6,2.2-1.1,3.4-1.7c3.5-1.8,7.2-3.6,10.7-5.6c0.1-0.4,0.2-1.3,0.3-1.8c0.1-0.4,0.1-0.9,0.2-1.2
		c0-0.2-0.1-0.7-0.2-0.9c-0.1-0.4-0.2-0.8-0.2-1.1l-0.3-2.2h2.3c0.1,0,0.2,0,0.4,0c0.3,0,0.6-0.1,0.8-0.1h2v2c0,0.5-0.1,0.9-0.1,1.3
		c0,0.3-0.1,0.8-0.1,0.9c0.1,0.3,0.2,0.7,0.3,1.1c0.1,0.6,0.4,1.6,0.6,2c3.9,2.3,7.8,4.2,12,6.3c0.7,0.4,1.4,0.7,2.1,1.1
		c1.4-4.6,2.8-9.1,4.1-13.5c1.3-4.2,2.5-8.4,3.7-12.4l1.8-5.9l2,5.8c0.5,1.5,1.1,3,1.7,4.7c1.3,3.5,2.7,7.1,3.6,11
		c0.3,1.4,0.7,2.9,1,4.3c1.2,4.7,2.4,9.6,2,15.2c-0.2,4.7,0.1,9.5,0.4,14.1c0.2,3.3,0.5,6.7,0.5,10c0,3.2-0.2,6.4-0.5,9.5
		c-0.2,2.3-0.3,4.6-0.4,6.9c0.9,0.3,1.8,0.7,2.7,1c0-1.4,0-2.8,0-4.1c0-7.4,0-15.1,2.7-22.5l3.2-8.6l0.6,9.2
		c0.2,3.3,0.5,6.6,0.7,9.9c0.2,3.2,0.5,6.5,0.7,9.8c0.3,0,0.6,0,0.9,0c1.6,0,2.1-0.1,2.6-1.2l0.1-0.1l0.1-0.1
		c0.3-0.3,0.8-0.9,1.9-0.9c0.5,0,1,0.1,1.5,0.3c0-0.1,0-0.2,0-0.2c0.2-1.8,0.4-5.3,3.5-5.3c0.5,0,1,0.1,1.5,0.3
		c0-0.6,0.1-1.2,0.1-1.7l0.1-1.3l3.6-1.3c3.6-1.3,7.4-2.6,11.2-3.9c0.9-0.4,1.2-0.5,1.2-2.3c-0.1-2.9,0.7-5.9,1.4-8.2l2.5-8l1.4,8.2
		c0.1,0.7,0.3,1.4,0.5,2.2c0.5,1.6,0.9,3.3,0.7,5.1c-0.3,2.6,0.6,2.8,2.6,3.5c1.2,0.3,2.4,0.8,3.6,1.3c1.5,0.6,2.9,1.2,4.3,1.5
		c1.9,0.5,5.6,1.4,6,5.7c3.8,0.4,7.8,3.7,9.7,7.8h2.3c0.2-2.4,0.3-4.9,0.5-7.4c0.3-4.4,0.6-9,0.9-13.5l0.1-1.8h5.3l0.1,1.9
		c0.1,1.3,0.2,2.6,0.3,4c0.3,4.2,0.7,8.5,0.8,12.7c0,3.4,0,6.8,0,10.1c0,4.4,0,8.9,0.1,13.4c0,0.9,0.6,2,1.2,3.1
		c0.5,0.9,1,1.8,1.3,2.8c0.4,1,0.9,2.2,1,3.3c0.2,1.6,0.3,3.2,0.4,4.7l1,0.1v14.1c18.3,12.1,28.5,21.5,32.1,25
		c38.2-7.7,56.5-19.4,56.7-19.5l1-0.6l57.3,30.2v345l-55.4,26.5l-0.9-0.5c-20.3-10.8-97.7-32.8-106.2-35.2
		C684.9,799.5,540.3,805,499.2,805z"/>
	<g>
		<path class="st1" d="M570.7,166.8c1.1,4,2.2,8.1,3.2,12.1c0.3,0,0.5-0.1,0.8-0.1c0.3-0.8,0.4-1.6,0.7-2.4c0.3,0,0.4,0,0.7,0
			c0.5,13.5,0.9,27.1,1.5,41c0.8,0.1,1.7,0.3,2.6,0.3c0.1,0,0.3,0,0.4,0c0.7-0.1,1.4-0.2,2.1-0.2c3.1,0,5.5,1.4,6.9,5.3
			c0.5,1.3,0.9,2.8,0.9,4.2c0.3,7.1,0.4,14.4,0.5,21.7c0,4.2-0.3,8.4-0.4,12.5c0,1.3-0.3,2.6-0.3,3.8c0,5,0,9.9,0,14.9
			c4.6,0.5,9.1,1.1,13.5,1.6c0.4-28.9,0.9-57.9,1.3-87.2c6.7,0,14,0,21.4,0c0,8.9,0,17.7,0,27c2.5,0,5.1-0.1,7.5-0.1
			c1.2,0,2.4,0,3.6,0.1c4,0.4,8,1.3,12.3,2.2c0,13.8,0,27.1,0,41.1c5.3,0,10.3,0,15.1,0c0.5,0,1-0.1,1.5-0.1c1,0,1.9,0.4,2.3,2.5
			c0.1,0.8,2.8,1.1,4.7,1.8c0,8.3,0,16.6,0,25c1.5,0.3,2.9,0.7,4.3,1c0.4-9.4,0.7-18.7,1.1-28.1c0-0.9,0.4-2,0.7-3
			c2-7,4.2-14,6.2-21c0.4-1.2,0.5-2.4,0.8-3.8c3,9.6,5.8,19,8.9,28.9c5.4-2.8,11.1-5.5,16.6-8.6c0.8-0.4,0.9-2.8,1.2-4.3
			c0.1-0.8-0.3-1.8-0.4-2.6c0.4,0,0.8-0.1,1.2-0.1c0,0.9-0.3,1.9-0.1,2.7c0.4,1.5,0.7,3.8,1.6,4.3c5.3,3.1,10.8,5.7,16.5,8.6
			c3-9.7,5.8-19.3,8.5-28.1c1.6,4.7,4,9.8,5.3,15.5c1.3,6.1,3.4,12,3,18.9c-0.4,8.1,0.8,16.2,0.9,24.3c0,5.8-0.8,11.7-0.9,17.7
			c2.3,0.8,4.5,1.7,6.7,2.5c0.3-9.7-0.8-19.5,2.7-28.8c0.5,7.3,1.1,14.4,1.6,22c2.3-1.2,5.3,0.7,7.1-2.7c0.1-0.1,0.2-0.1,0.3-0.1
			c0.6,0,2,0.6,3.1,0.8c0.8-1.6,0-6,2-6c0.7,0,1.7,0.5,3.1,1.8c0.3-2,0.4-3.5,0.5-5.1c4.5-1.6,8.9-3.2,13.5-4.7
			c1.9-0.7,2.6-1.6,2.6-4.2c-0.1-2.4,0.5-5,1.3-7.6c0.4,2.3,1.5,4.6,1.2,6.6c-0.4,4,1.5,4.9,3.9,5.7c2.7,0.8,5.4,2.2,8.1,2.8
			c2.7,0.7,5,1.6,4.3,5.9c0.4-0.1,0.9-0.2,1.3-0.2c3.6,0,7.7,3.7,9.1,7.9c1.9,0,3.5,0,5.5,0c0.5-7.1,0.9-15,1.5-22.8
			c0.5,0,1.1,0,1.6,0c0.4,5.5,0.9,11.1,1.1,16.6c0.1,7.8-0.1,15.6,0.1,23.5c0.1,2.3,1.9,4.3,2.7,6.6c0.4,0.9,0.8,1.9,0.9,2.8
			c0.3,2.2,0.4,4.3,0.5,6.3l0.9,0.1v13.3c22.9,15,33.3,26,33.4,26.1c39.8-7.9,58.4-20,58.4-20l55.2,29.1v342.5l-53.4,25.5
			c-21.8-11.6-107.4-35.6-107.4-35.6C684.9,797.5,540.6,803,499.2,803c-7.6,0-11.8-0.2-11.8-0.2c-1.2,0-2.4,0-3.6,0
			c-187.6,0-308.8-77-308.8-77c-66.9,18.8-108.3,36.6-108.3,36.6l-49.1-21.2V396.6l51.5-31.7c16.4,11.6,56.2,21.2,56.2,21.2
			c11.5-9.8,24.3-18.8,37.9-27v-13c-0.3,0-0.6,0-0.9,0c0.9-3.6,0.9-6.7,0.9-9.8c2-0.1,4-0.1,5.9-0.4c0.5-0.1,1.3-0.9,1.5-1.8
			c0.1-0.5-0.4-1.9-0.8-1.9c-3-0.5-4.3-2.3-3-5.8c0.7-1.9,1.6-2.5,2.7-2.5c1.1,0,2.3,0.6,3.5,1c0-3.5,0-6.9,0-10.4
			c7.1-0.7,11.1-7.4,16.2-11.7c1.1-0.9,0.9-4.2,0.9-6.3c0.1-6.2,0-6.2,3.9-10.8c2.6,2.7,4.3,5.4,4,10.4c-0.5,11.2-0.1,22.5-0.1,34.4
			c2.6-0.4,4.6-0.7,6.7-1.1c0-0.5,0-0.9,0.1-1.5c-1.3-0.4-2.8-0.7-5-1.2c2.7-1.2,4.8-3.9,7.3-3.9c1.2,0,2.4,0.5,3.9,2
			c0-4.9,0-8.8,0-12.8c-0.1-6.5-0.5-12.8-0.1-19.3c0.1-2.4,2.2-4.7,3.4-7.4c3.1,2.8,5.4,5.5,4.6,10.1c-0.8,4.7,0.4,8.2,4.2,10.5
			c2,1.2,3.5,3.4,5.4,4.9c2.2,1.6,4.5,2.8,7.3,4.6c0,1.9,0,5.1,0,8.2c2.4-5.1,4.5-10.1,4-16.2c-0.4-7-0.1-14-0.1-21
			c0-1.5,0.3-3.1,0.5-4.7c3.1,0,5.9,0,9,0c0-7.8,0-15.2,0-23.1c1.3-0.4,2.3-0.7,3.2-0.9c0.1-1.8,0.3-3.2,0.4-5c10.5,0,21,0,31.7,0
			c0.1,1.6,0.3,3.1,0.4,4.9c0.9,0.3,1.9,0.7,3.2,1.1c0,3.4-0.1,6.7,0,10.1c0,1.1,0.7,2.2,1.1,3.1c0.4-1.1,1.2-2.2,1.2-3.4
			c0.1-13.2,0.8-26.4-0.1-39.5c-0.4-6.3,0.4-11.6,3.6-15.2c4.7-5.3,3.5-11.3,3.8-17.4c0-0.5,0.1-1.1,0.1-1.8c0-0.3,0.3-0.4,0.9-1.3
			c0,5.8,0,10.7,0,15.9c4.3,0,8,0,12.1,0c0-5.1,0-10,0-14.8c0.4,0,0.8,0,1.2,0c0,3.4,0,6.9,0,10.3c0,2.2,0.7,3.6,1.9,5.7
			c2.4,4,4.9,9.3,5,14.2c0.5,22.8,0.3,45.5,0.3,68.2c0,1.3,0,2.8,0,4.3c5.7-1.9,5.7-1.9,5.7-8.2c0-22.5,0-44.9,0-67.4
			c0-2-0.3-3.9-0.4-6.1c1.6,0,3.2,0,4.9,0c0,3.1,0,6.2,0,9.7c1.9,0,3.8,0,6.1,0c-0.1-3.1-0.3-6.3-0.4-9.7c6.7,0,13.9,0,20.8,0
			c0,4.6,0,9,0,13.8c18.6,0,37.4,0,56.4,0c0.1-2.3,0.3-4.3,0.4-6.7c2,0,3.9,0,6.1,0c0,15.2,0,30.5,0,45.9c2.8,1.2,5.5,2.3,8.8,3.6
			c0-27.4,0-54.4,0-81.6c11.9,0,23.3,0,35.3,0c0,16.7,0,33.2,0,50.2c6.9,0,13.4,0,20.1,0c0,9.7,0,18.9,0,28.3c3.1,0,4-1.5,4-4.9
			c-0.1-21.9,0-43.8,0-65.7c0-2.2-0.8-5,2.3-5.5c0.4,0,0.5-2,1.1-3.8c8.6,0,17.4,0,26.2,0c-0.1,0.4-0.3,0.8-0.4,1.2
			c0.9,1.1,2.2,2,2.8,3.2c0.5,0.9,0.8,2.3,0.8,3.4c0.1,8.5,0,17.1,0,26.2c6.5,0,12.5,0,19,0c0.3,5.1,0.5,9.7,0.9,14.8
			c1.3,0,3.6,0,6.1,0c0,12.8,0,25.6,0,38.3c1.7,0.1,3.4,0.2,5.1,0.3c0-17.3,0-34.6,0-51.9c1.9-5.4,5.3-7.4,9.6-7.4
			c1.1,0,2.4,0.1,3.6,0.4c0.5-14.2,0.9-27.8,1.5-41.4c0.1,0,0.4,0,0.5,0c0.3,0.8,0.5,1.6,0.8,2.3c0.3,0,0.5,0.1,0.8,0.3
			C568.7,174.8,569.6,170.9,570.7,166.8 M570.7,151.5l-3.8,14.2c-0.5,1.8-0.9,3.5-1.3,5.2c-0.1,0.4-0.2,0.7-0.3,1.1h-3.5l-0.2,3.8
			c-0.4,9.7-0.8,19.3-1.1,29.4c-0.1,2.6-0.2,5.2-0.3,7.8c-4.5,0.1-10.3,1.9-13.1,10.1l-0.2,0.6v0.7v9.3h-1.1h-2.4
			c-0.1-2.2-0.3-4.4-0.4-6.6c-0.1-1.5-0.2-2.9-0.2-4.4l-0.2-3.8h-3.8h-15c0-1.7,0-3.4,0-5.1c0-5.9,0-11.5,0-17.2
			c0-1.4-0.3-3.5-1.3-5.2c-0.5-1-1.2-1.8-1.8-2.4l1-4.1h-5.1h-26.2h-2.9l-0.9,2.7c-0.2,0.7-0.4,1.4-0.5,2c-1.6,1-2.4,2.4-2.7,3.3
			c-0.5,1.6-0.5,3.1-0.4,4.3c0,0.3,0,0.7,0,0.9c0,7.3,0,14.6,0,21.9c0,5.4,0,10.9,0,16.4h-16.1v-46.2v-4h-4h-35.3h-4v4v75.7
			c-0.3-0.1-0.5-0.2-0.8-0.3v-43.2v-4h-4h-6.1h-3.8l-0.2,3.8c0,1-0.1,1.9-0.2,2.9h-48.6v-9.8v-4h-4H335h-1.7h-4h-4.9h-4.2l0.1,3
			c-0.8-1.9-1.9-3.9-3.1-6c-1.1-1.9-1.4-2.5-1.4-3.7v-10.3v-4h-4h-1.2h-4v4v10.8h-4.1v-11.9V180l-7.3,11c-0.1,0.2-0.2,0.3-0.3,0.4
			c-0.3,0.4-1.2,1.4-1.2,3.1c0,0.2,0,0.5,0,0.7c0,0.3-0.1,0.6-0.1,1c-0.1,1.3-0.1,2.6-0.1,3.8c0,4.4,0,8-2.7,11.1
			c-3.7,4.1-5.1,9.9-4.6,18.1c0.4,6.4,0.5,13,0.4,19.4h-2.2h-31.7h-3.8l-0.2,3.8c0,0.7-0.1,1.4-0.2,2.1c-0.2,0.1-0.4,0.1-0.6,0.2
			l-2.8,0.9v3v19.1h-5h-3.5l-0.4,3.5c0,0.4-0.1,0.8-0.2,1.2c-0.2,1.3-0.4,2.6-0.4,4c0,2.1,0,4.2-0.1,6.2c-0.1,4.9-0.1,9.9,0.2,15
			l0,0l0,0c0.1,1,0.1,2,0,3c-0.4-0.2-0.7-0.4-1.1-0.6c-1.4-0.9-2.7-1.6-3.8-2.4c-0.6-0.5-1.2-1.1-1.8-1.7c-1.1-1.1-2.3-2.4-4-3.4
			c-1.8-1.1-3-2.6-2.3-6.4c1.3-7.3-3.4-11.5-5.9-13.7l-4.1-3.7l-2.2,5c-0.3,0.7-0.8,1.5-1.3,2.3c-1.1,1.9-2.3,3.9-2.5,6.5
			c-0.3,4.9-0.2,9.7,0,14.3c0,1.7,0.1,3.5,0.1,5.2v6.8c-2,0-3.7,0.8-5.1,1.7c0-0.3,0-0.7,0-1c-0.1-8-0.2-15.6,0.2-23.2
			c0.4-6.7-2.2-10.4-5.1-13.4l-3.1-3.2l-2.9,3.4c-4.4,5.2-4.7,6.1-4.8,12.9v0.5l0,0l0,0c0,0.3,0,0.6,0,0.9c0,0.7,0,2.1-0.1,2.8
			c-1.3,1.2-2.6,2.5-3.8,3.7c-3.2,3.3-6,6.2-9.6,6.5l-3.6,0.4v3.6v5.4c-1.6,0.1-4.5,1-6,5.1c-1,2.8-1,5.2,0.1,7.2
			c-0.1,0-0.1,0-0.2,0l-3.8,0.2v3.8c0,2.9,0,5.7-0.8,8.8l-1.2,5h2v6.8c-12.8,7.8-24.6,16.2-34.9,24.9c-8.1-2.1-39.3-10.5-52.9-20.1
			L69,360l-2.2,1.4l-51.5,31.7l-1.9,1.2v2.2v344.6v2.6l2.4,1l49.1,21.2l1.6,0.7l1.6-0.7c0.4-0.2,41.3-17.6,106.1-35.9
			c6.9,4.2,35.8,20.9,83.3,37.9c31.4,11.2,64.4,20.2,97.9,26.6c42,8,85.1,12.1,128.2,12.1c1.2,0,2.4,0,3.5,0c0.7,0,4.8,0.2,11.8,0.2
			c41.1,0,185.7-5.5,323.6-76c11.5,3.3,85.5,24.4,105.1,34.9l1.8,0.9l1.8-0.9l53.4-25.5l2.3-1.1v-2.5V394.3v-2.4l-2.1-1.1
			l-55.2-29.1l-2.1-1.1l-2,1.3c-0.2,0.1-17.9,11.4-54.9,19c-4.1-3.9-14-12.7-30.7-23.9v-11.2v-3.6l-1.1-0.1c-0.1-1-0.2-2.1-0.3-3.2
			c-0.2-1.4-0.7-2.7-1.2-3.8c-0.4-1.1-0.9-2.1-1.4-3c-0.5-0.8-1-1.8-1-2.3c-0.1-4.4-0.1-8.9-0.1-13.3c0-3.3,0-6.7,0-10.1l0,0l0,0
			c-0.2-4.3-0.5-8.6-0.8-12.8c-0.1-1.3-0.2-2.6-0.3-4l-0.3-3.7h-3.7h-1.6h-3.7l-0.3,3.7c-0.4,4.6-0.6,9.1-0.9,13.6
			c-0.1,1.5-0.2,2.9-0.3,4.3c-2.1-3.1-5.2-5.5-8.4-6.3c-1.2-4.4-5.5-5.5-7.1-5.9h-0.1h-0.1c-1.2-0.3-2.6-0.8-4-1.4
			c-1.2-0.5-2.4-1-3.7-1.3c-0.6-0.2-1-0.4-1.1-0.4c0-0.2,0-0.5,0-1c0.3-2.1-0.3-4-0.7-5.8c-0.2-0.7-0.4-1.4-0.5-2l-2.9-16.4
			l-4.9,15.9c-0.7,2.4-1.6,5.6-1.5,8.8c0,0.2,0,0.3,0,0.4c-3.8,1.2-7.5,2.6-11.1,3.8l-2.3,0.8l-2.5,0.9l-0.1,2.1
			c-1.7,0.1-3.8,1.2-4.6,3.9c-0.1,0.5-0.2,0.9-0.3,1.4c-1.3,0.1-2.5,0.7-3.3,1.7l-0.2,0.3v0.1c-0.2-2.6-0.4-5.1-0.6-7.6
			c-0.2-3.2-0.5-6.6-0.7-9.9l-1.3-18.3l-6.5,17.2c-0.4,1.1-0.7,2.1-1,3.2c-0.1-1.1-0.1-2.2-0.2-3.3c-0.3-4.8-0.6-9.4-0.4-13.9
			c0.3-5.8-0.9-10.9-2.1-15.7c-0.4-1.4-0.7-2.8-1-4.2l0,0l0,0c-0.9-4.1-2.4-7.9-3.7-11.3c-0.6-1.6-1.2-3.1-1.7-4.6l-4-11.7
			l-3.6,11.8c-1.2,4-2.4,8-3.7,12.4c-1.1,3.7-2.2,7.4-3.4,11.2l0,0c-3.9-2-7.6-3.8-11.2-5.9c-0.1-0.4-0.2-0.8-0.3-1.1
			s-0.1-0.6-0.2-0.9c0-0.1,0-0.3,0-0.4c0.1-0.4,0.1-0.9,0.1-1.5v-4h-4c-0.4,0-0.8,0-1.1,0.1c-0.1,0-0.1,0-0.2,0h-4.5l0.6,4.5
			c0.1,0.5,0.2,1,0.3,1.3c0,0.1,0.1,0.3,0.1,0.4c-0.1,0.3-0.1,0.7-0.2,1c0,0.2-0.1,0.5-0.1,0.8c-3.2,1.8-6.6,3.5-9.8,5.1
			c-0.4,0.2-0.9,0.4-1.3,0.6c-1.1-3.5-2.2-7-3.2-10.4c-1.4-4.6-2.8-9.3-4.3-13.9l-4.5-14.5l-3.2,14.9c-0.1,0.6-0.2,1.1-0.3,1.6
			c-0.1,0.7-0.2,1.3-0.4,1.8v0.1v0.1c-1,3.5-2.1,7-3.1,10.4s-2.1,7-3.1,10.5c0,0.1-0.1,0.3-0.1,0.4c-0.2,0.6-0.4,1.3-0.6,2.1
			l-0.2-0.1c-0.8-0.3-1.7-0.5-2.5-0.7c-0.1,0-0.2,0-0.3-0.1c-1.4-3.3-4.3-3.7-5.6-3.7c-0.4,0-0.8,0-1.1,0.1c-0.1,0-0.3,0-0.4,0
			h-11.1v-37.1v-3.2l-3.2-0.7l-1.4-0.3c-3.9-0.8-7.5-1.6-11.3-2l0,0l0,0c-1.2-0.1-2.4-0.1-3.9-0.1c-1.2,0-2.4,0-3.5,0.1v-22.9v-4h-4
			h-21.4h-4v3.9c-0.2,15.3-0.4,30.7-0.7,45.6c-0.2,12.2-0.4,24.8-0.6,37.2c-1.8-0.2-3.7-0.4-5.6-0.7V265c0-0.4,0.1-0.8,0.1-1.4
			c0.1-0.7,0.2-1.5,0.2-2.4c0-1.6,0.1-3.1,0.2-4.8c0.1-2.5,0.2-5.1,0.2-7.8l0,0l0,0c-0.1-7.2-0.2-14.6-0.5-21.7
			c0-1.7-0.4-3.5-1.2-5.5c-1.9-5.1-5.6-7.9-10.7-7.9c-0.4,0-0.8,0-1.2,0.1c-0.3-7.7-0.6-15.5-0.8-23c-0.2-4.8-0.3-9.6-0.5-14.3
			l-0.1-3.9h-3.6c-0.5-2-1.1-4.2-1.8-6.7L570.7,151.5L570.7,151.5z"/>
	</g>
</g>
<path class="st2" d="M514.2,305.3c-0.7,0-1.2,0-1.9,0s-1.3,0-2,0c-5.4-0.1-10.9-0.3-16.5-0.3c-0.7,0-1.3,0-2,0s-1.3,0-2,0
	c-4.5,0-9,0-13.8,0.1c0,0-193.5-0.9-316.3,89.3l-7-4c0,0,110.3-91.7,338.8-93.1c0.5,0,0.9,0,1.5,0c0.7,0,1.3,0,2,0h2
	c3.2,0,6.6,0,9.8,0c0.7,0,1.3,0,2,0c0.5,0,1.2,0,1.9,0L514.2,305.3z"/>
<path class="st2" d="M486.8,305.3c0.7,0,1.2,0,1.9,0c0.7,0,1.3,0,2,0c5.4-0.1,10.9-0.3,16.5-0.3c0.7,0,1.3,0,2,0s1.3,0,2,0
	c4.5,0,9,0,13.8,0.1c0,0,193.5-0.9,316.3,89.3l7-4c0,0-110.3-91.7-338.8-93.1c-0.5,0-0.9,0-1.5,0c-0.7,0-1.3,0-2,0h-2
	c-3.2,0-6.6,0-9.8,0c-0.7,0-1.3,0-2,0c-0.5,0-1.2,0-1.9,0L486.8,305.3z"/>
<path class="st2" d="M537,381.1c-0.5,0-1.2,0-1.8-0.1c-0.7,0-1.3-0.1-1.9-0.1s-0.9,0-1.5-0.1c-1.3,0-2.6-0.1-3.9-0.1
	c-1.5,0-2.8-0.1-4.3-0.1c-11.5-0.3-23.2-0.3-35.1,0.3c-3.1,0.1-6.2,0.3-9.3,0.4c-1.3,0.1-2.7,0.1-4,0.3c-1.3,0.1-2.7,0.1-4,0.3
	c-0.1,0-0.1,0-0.3,0c-0.7,0-1.3,0-1.9,0.1c-0.7,0-1.5,0.1-2.2,0.1c-97.8,6.2-143.2,21.7-172.4,32.5l-2.8-6.5
	c0,0,70.3-28.7,176.8-33.3c0.7,0,1.5,0,2.2-0.1c0.7,0,1.2,0,1.9-0.1c3.6-0.1,7.3-0.3,11.1-0.3c1.2,0,2.4,0,3.6,0c1.3,0,2.6,0,3.9,0
	c2.2,0,4.2,0,6.3,0c5.3,0,10.4,0,15.5,0.1c1.5,0,2.8,0,4.3,0.1c1.3,0,2.6,0,3.9,0.1c3.6,0.1,7.1,0.3,10.7,0.4c0.7,0,1.3,0,1.9,0.1
	c0.5,0,1.2,0,1.8,0.1L537,381.1z"/>
<path class="st2" d="M461.6,381.1c0.5,0,1.2,0,1.8-0.1c0.7,0,1.3-0.1,1.9-0.1c0.5,0,0.9,0,1.5-0.1c1.3,0,2.6-0.1,3.9-0.1
	c1.5,0,2.8-0.1,4.3-0.1c11.5-0.3,23.2-0.3,35.1,0.3c3.1,0.1,6.2,0.3,9.3,0.4c1.3,0.1,2.7,0.1,4,0.3c1.3,0.1,2.7,0.1,4,0.3
	c0.1,0,0.1,0,0.3,0c0.7,0,1.3,0,1.9,0.1c0.7,0,1.5,0.1,2.2,0.1c97.8,6.2,143.2,21.7,172.4,32.5l2.8-6.5c0,0-70.3-28.7-176.8-33.3
	c-0.7,0-1.5,0-2.2-0.1c-0.7,0-1.2,0-1.9-0.1c-3.6-0.1-7.3-0.3-11.1-0.3c-1.2,0-2.4,0-3.6,0c-1.3,0-2.6,0-3.9,0c-2.2,0-4.2,0-6.3,0
	c-5.3,0-10.4,0-15.5,0.1c-1.5,0-2.8,0-4.3,0.1c-1.3,0-2.6,0-3.9,0.1c-3.6,0.1-7.1,0.3-10.7,0.4c-0.7,0-1.3,0-1.9,0.1
	c-0.5,0-1.2,0-1.8,0.1L461.6,381.1z"/>
<path class="st2" d="M793.5,721.4c0,0-278.5,141.8-590.4,0l13.5-2.6c0,0,251.5,129.6,563,0L793.5,721.4z"/>
<g>
	<g>
		<polygon class="st1" points="331,380.8 354.4,387 342.6,365.8 355.8,345.5 332,350.2 316.9,331.3 313.9,355.5 291.2,364.1 
			313.2,374.3 314.4,398.5 		"/>
	</g>
	<path class="st0" d="M342.1,359.4c-0.7-1.8-1.8-3.4-3-4.9l0,0c-1.2-1.5-2.7-2.7-4.5-3.5c-0.4-0.1-0.7-0.4-0.9-0.5
		c-0.9-0.4-1.9-0.8-3-1.1l0,0c-0.5-0.1-1.1-0.3-1.6-0.4c-1.6-0.3-3.2-0.3-4.9,0c-0.4,0-0.7,0.1-1.1,0.1c-0.3,0-0.5,0.3-0.8,0.3
		c-1.1,0.3-2.2,0.4-3,1.2l0,0c-2,0.5-3.6,2-5.1,3.6c-0.7,0.8-1.3,1.6-1.9,2.3l0,0v0.1l0,0l0,0c-0.1,0.1-0.3,0.4-0.4,0.5
		c0,0.1-0.1,0.3-0.1,0.3c-0.8,1.6-1.5,3.4-1.8,5c-0.3,1.8-0.1,3.4-0.1,5.1l0,0c0.3,0.9,0.4,1.9,0.8,2.8l0.3,0.5
		c0.5,1.6,1.3,3,2.3,4.3l0,0l0,0l0,0l0,0c0.3,0.3,0.5,0.7,0.8,0.9c1.1,1.2,2.2,2.2,3.5,3c0,0,0.1,0,0.1,0.1c0.3,0.1,0.5,0.3,0.8,0.4
		c1.2,0.7,2.7,1.2,4,1.6c0.1,0,0.1,0,0.1,0l0,0c2.3,0.5,4.7,0.5,7.1,0c0.4-0.1,0.8-0.1,1.2-0.3c0.1,0,0.4-0.1,0.5-0.1l0,0
		c1.8-0.5,3.4-1.3,4.9-2.6c0.3-0.1,0.4-0.4,0.7-0.5c0,0,0,0,0.1,0c1.3-1.1,2.6-2.4,3.4-4l0,0c0.1-0.1,0.1-0.3,0.3-0.5l0,0
		c1.3-2.6,2.3-5.4,2-8.2l0,0v0.1h0.1l0,0c0-0.5,0-1.2-0.1-1.8l0,0c-0.1-1.2-0.4-2.6-0.9-3.8C342.1,359.6,342.1,359.5,342.1,359.4z
		 M333.9,352.4c1.3,0.8,2.6,1.8,3.6,3l-1.6,5.7l-4.2,1.6l-5.3-3.1l-0.5-4l5.3-4c0,0,0,0,0.1,0c0.5,0.1,1.2,0.4,1.8,0.7
		C333.3,352,333.6,352.1,333.9,352.4z M320.4,373.8l-5.9,0.3c-0.8-1.1-1.3-2.3-1.9-3.5l-0.1-0.5c-0.3-0.7-0.4-1.3-0.5-2l4.5-3.5
		l3.8,0.7l2.3,5.5L320.4,373.8z M315.5,355.3c1.2-1.3,2.6-2.4,4.2-3.2l4.7,3.2l0.5,4.2l-4.7,4l-3.8-0.7l-2.2-6.1l0,0
		C314.7,356.3,315.1,355.9,315.5,355.3z M323.6,380.1l-1.9-5.4l2-3.2l6.2-0.5l2.2,3l-1.8,5.9c-0.3,0-0.5,0.1-0.7,0.1
		C327.7,380.6,325.6,380.6,323.6,380.1z M339.8,372.5l-6.7,0.3l-2-2.7l1.5-6.1l4.2-1.6l4.9,3.2C341.5,368,340.9,370.3,339.8,372.5z"
		/>
</g>
<g>
	<g>
		<polygon class="st1" points="405.8,365.4 428.1,374.8 419.2,352.2 435,333.7 410.7,335.2 398.1,314.6 392,338.1 368.4,343.7 
			388.9,356.7 387,381 		"/>
	</g>
	<g>
		<g>
			<path class="st0" d="M419.1,352.4c1.3-2.6,2.4-5.4,3.1-8.6c0.4-1.5,0.1-3.1-0.7-4.5s-2-2.3-3.5-2.7c-3.2-0.8-6.2-1.2-9-1.2
				c-4,0-7.4,0.9-10.3,2.6c-2.8,1.6-5.3,4.3-7,7.8c-1.3,2.6-2.4,5.4-3.1,8.6c-0.4,1.5-0.1,3.1,0.7,4.5c0.8,1.3,2,2.3,3.5,2.7
				c3.2,0.8,6.2,1.2,9,1.2c4,0,7.4-0.9,10.3-2.6C414.9,358.6,417.2,355.9,419.1,352.4z M417.5,338.9c0.9,0.3,1.8,0.8,2.2,1.6
				c0.5,0.8,0.7,1.8,0.4,2.7c-0.3,1.2-0.7,2.8-1.3,4.5l-5.9-9.7C414.7,338.2,416.1,338.6,417.5,338.9z M393.2,359.5
				c-0.9-0.3-1.8-0.8-2.2-1.6c-0.5-0.8-0.7-1.8-0.4-2.7c0.3-1.2,0.7-2.8,1.3-4.5l5.9,9.7C396,360.2,394.6,359.8,393.2,359.5z
				 M400.6,360.6l-7.6-12.5c1.5-3.1,3.6-6.2,6.7-8.1s6.9-2.4,10.3-2.3l7.6,12.5c-1.5,3.1-3.6,6.2-6.7,8.1S404,360.7,400.6,360.6z"/>
			<path class="st0" d="M411,351.7l1.9-1.1l-2-3.4l1.6-0.9l-1.2-1.9l-1.6,0.9l-2-3.4l-1.9,1.1l2,3.4l-2.2,1.2l-2-3.4l-1.9,1.1l2,3.4
				l-2.2,1.2l-2-3.4l-1.9,1.1l2,3.4l-1.6,0.9l1.2,1.9l1.6-0.9l2,3.4l1.9-1.1l-2-3.4l2.2-1.2l2,3.4l1.9-1.1l-2-3.4l2.2-1.2L411,351.7
				z"/>
		</g>
	</g>
</g>
<g>
	<g>
		<polygon class="st1" points="477,347 446.8,320.8 486.5,317.4 502.1,280.7 517.6,317.4 557.4,320.8 527.3,347 536.3,385.8 
			502.1,365.2 467.9,385.8 		"/>
		<path class="st0" d="M502.2,363l-18.6,11.2c1.2,0,2.4,0,3.6,0l14.8-9l15.2,9.2c1.3,0,2.6,0,3.9,0.1L502.2,363z M561.8,319.5
			l-8.9-0.8l-34.3-3l-4.5-10.4l-3.4-8l-5.5-13.2l-3.2-8.2l-3.5,8.2l-5.5,13.1l-3.2,7.7l-4.6,10.8l-34.3,3l-8.9,0.8l6.7,5.8
			l25.9,22.5l-6.3,27l-1.5,6.5l-0.1,0.8l-1.9,7.8l7.7-4.6l6.6-4l11.9-7.1l10.8-6.5l11.1,6.6l10.5,6.3l7.8,4.7l7.7,4.6l-2-8.6v-0.1
			l-1.3-6.1l-6.3-27.4l25.9-22.5L561.8,319.5z M533.2,381l0.3,0.9l-1.8-1.1l-10.5-6.3l-19-11.5l-18.6,11.2l-12.5,7.6l-0.3,0.1v-0.1
			l1.6-7.1l6.5-28.3l-27.6-24l36.6-3.1l5.9-14.2l3.2-7.8l4.9-11.6l5,11.6l3.4,8l5.9,14l36.6,3.1l-27.6,24l6.6,28.6L533.2,381z"/>
	</g>
	<path class="st0" d="M525.4,336.3L525.4,336.3c-0.4-5.1-2.3-9.8-5.7-13.6c-0.3-0.4-0.7-0.7-1.1-1.1c-3.9-3.9-9.2-6.3-14.7-6.7l0,0
		c0,0,0,0-0.1,0c-6.5-0.5-12.8,1.8-17.5,6.1c-0.3,0.3-0.5,0.4-0.8,0.7c-4.9,4.9-7.3,11.5-6.7,18.2l0,0l0,0
		c0.4,5.5,2.8,10.8,6.7,14.7c0.4,0.4,0.8,0.8,1.1,1.1c3.9,3.4,8.6,5.4,13.8,5.8c0.5,0,1.2,0,1.8,0c6.2,0,12.1-2.4,16.6-6.9
		c0.1-0.1,0.1-0.3,0.3-0.3C523.6,349.4,525.9,342.9,525.4,336.3C525.5,336.3,525.4,336.3,525.4,336.3L525.4,336.3z M487.8,323.6
		c0.1-0.1,0.4-0.4,0.7-0.5c3.8-3.5,8.6-5.4,13.8-5.4h0.1c0,1.3-0.1,2.8-0.4,4.2l-0.5-0.1c-0.8-0.1-1.6,0.4-1.8,1.2
		c-0.1,0.8,0.4,1.6,1.2,1.8h0.4c-0.4,1.2-1.1,2.4-1.8,3.6l-0.4-0.3c-0.7-0.4-1.6-0.1-2,0.5s-0.1,1.6,0.5,2l0.3,0.1
		c-0.4,0.5-0.8,1.1-1.3,1.5c-0.1,0.1-0.3,0.3-0.4,0.4c-0.4,0.4-0.8,0.8-1.2,1.1l-0.4-0.4c-0.5-0.7-1.5-0.7-2.2-0.3
		c-0.7,0.5-0.7,1.5-0.1,2l0.1,0.3c-1.2,0.7-2.3,1.2-3.6,1.6l-0.1-0.5c-0.3-0.8-1.1-1.2-1.9-0.9c-0.8,0.3-1.2,1.1-0.9,1.9l0.1,0.3
		c-1.3,0.3-2.6,0.4-3.9,0.4C481.7,332.7,483.8,327.4,487.8,323.6z M487.8,352.5c-3.1-3.1-5-7-5.7-11.3c1.6,0,3.2-0.1,4.7-0.5
		l0.3,0.8c0.3,0.7,0.8,0.9,1.3,0.9c0.1,0,0.3,0,0.5-0.1c0.8-0.3,1.2-1.1,0.9-1.9l-0.3-0.7c1.6-0.5,3.1-1.2,4.6-2.2l0.5,0.7
		c0.3,0.4,0.7,0.5,1.2,0.5c0.4,0,0.7-0.1,0.9-0.4c0.7-0.5,0.7-1.5,0.3-2l-0.4-0.5c0.5-0.4,0.9-0.8,1.3-1.2c0.1-0.1,0.4-0.3,0.5-0.4
		c0.7-0.7,1.2-1.3,1.8-2l0.8,0.4c0.3,0.1,0.5,0.3,0.8,0.3c0.5,0,1.1-0.3,1.2-0.7c0.4-0.7,0.1-1.6-0.5-2l-0.5-0.4
		c0.8-1.5,1.6-3,2.2-4.6l0.8,0.1c0.1,0,0.1,0,0.3,0c0.7,0,1.3-0.5,1.5-1.2c0.1-0.8-0.4-1.6-1.2-1.8l-0.7-0.1c0.3-1.5,0.4-3,0.4-4.5
		c4.2,0.7,8.2,2.7,11.3,5.7c0.3,0.3,0.5,0.7,0.9,0.9c2.6,3,4.2,6.5,4.9,10.4c-1.5,0-3,0.1-4.5,0.4l-0.1-0.5
		c-0.1-0.8-0.9-1.3-1.8-1.2c-0.8,0.1-1.3,0.9-1.2,1.8l0.1,0.8c-1.6,0.5-3.1,1.2-4.6,2l-0.3-0.5c-0.4-0.7-1.3-0.9-2-0.5
		s-0.9,1.3-0.5,2l0.4,0.7c-0.7,0.5-1.5,1.2-2,1.8c-0.3,0.3-0.4,0.4-0.5,0.5c-0.4,0.4-0.8,0.8-1.2,1.3l-0.4-0.4
		c-0.7-0.5-1.6-0.4-2.2,0.3c-0.5,0.7-0.4,1.6,0.3,2l0.5,0.5c-0.9,1.5-1.6,3-2.2,4.6l-0.5-0.1c-0.8-0.3-1.6,0.1-1.9,0.9
		s0.1,1.6,0.9,1.9l0.8,0.3c-0.3,1.5-0.5,3.1-0.5,4.7c-3.9-0.5-7.4-2.3-10.4-4.9C488.3,353,488,352.8,487.8,352.5z M516.8,352.2
		L516.8,352.2l-0.3,0.3c-3.9,3.9-9.2,6.1-14.6,5.9c0-1.3,0.1-2.7,0.4-3.9l0.4,0.1c0.1,0,0.3,0.1,0.5,0.1c0.7,0,1.2-0.4,1.3-0.9
		c0.3-0.8-0.1-1.6-0.9-1.9l-0.7-0.3c0.4-1.2,0.9-2.4,1.6-3.6l0.4,0.3c0.3,0.3,0.5,0.4,0.9,0.4s0.8-0.1,1.2-0.5
		c0.5-0.7,0.4-1.6-0.3-2l-0.5-0.4c0.4-0.4,0.7-0.8,1.1-1.2c0.1-0.1,0.3-0.3,0.4-0.4c0.5-0.4,0.9-0.9,1.5-1.3l0.3,0.4
		c0.3,0.4,0.8,0.7,1.2,0.7c0.3,0,0.5,0,0.8-0.3c0.7-0.4,0.9-1.3,0.5-2l-0.4-0.5c1.2-0.7,2.4-1.2,3.6-1.8l0.1,0.4
		c0.1,0.7,0.8,1.2,1.5,1.2c0.1,0,0.1,0,0.3,0c0.8-0.1,1.3-0.9,1.2-1.8l-0.1-0.7c1.3-0.3,2.7-0.4,4.2-0.4
		C522.6,343.2,520.5,348.3,516.8,352.2z"/>
</g>
<g>
	<g>
		<polygon class="st1" points="589,361.7 607.7,377.3 605.9,353 626.5,340.2 602.9,334.4 597.1,311 584.3,331.5 560.1,329.7 
			575.7,348.3 566.5,370.8 		"/>
	</g>
	<path class="st0" d="M605.4,335.6c-0.1-0.3-0.4-0.5-0.7-0.8l0,0l0,0l0,0c-2.3-2.8-5.5-4.7-9-5.7l0,0l0,0c-4.9-1.1-9.8-0.1-13.9,2.8
		c-0.1,0-0.1,0.1-0.3,0.1c-3.8,2.8-6.2,7.3-6.7,12l0,0l0,0c-0.3,3.6,0.5,7.3,2.6,10.4c0.3,0.4,0.4,0.7,0.7,0.9
		c2.4,3.2,5.8,5.8,9.8,6.6v0.1l0,0l0,0c0.4,0,0.8,0,1.2,0.1c4.2,0.7,8.5-0.3,12-2.7c0.3-0.1,0.4-0.3,0.7-0.4c4-2.8,6.5-7.4,6.9-12.3
		C608.9,343.1,607.7,339,605.4,335.6z M607.1,346c-4.2-0.8-8.5,0-12,2.2c-0.7-0.9-1.2-1.9-1.9-2.8c3.8-2.8,7.4-5.8,10.8-9l0.1,0.1
		C606,339.4,607,342.7,607.1,346z M578.3,353c-1.3-2.4-2-5.1-2-7.8c0.1,0,0.1,0,0.3,0c4.3,0.7,8.8-0.3,12.4-2.8
		c0.7,0.8,1.1,1.5,1.6,2.2c0.1,0.1,0.3,0.4,0.4,0.5C586.9,348,582.6,350.7,578.3,353z M590.3,341.4c3.1-2.7,5.1-6.3,5.8-10.5
		c2.7,0.8,5,2.3,6.9,4.3c-3.4,3.1-6.9,6.1-10.7,8.9c-0.1-0.1-0.3-0.4-0.4-0.5C591.3,342.9,590.8,342.2,590.3,341.4z M594.4,330.5
		c-0.5,3.6-2.3,7.1-5.1,9.6c-2-2.6-4-5-6.1-7.3c3.2-2.2,7-3,10.9-2.4C594.2,330.5,594.3,330.5,594.4,330.5z M581.8,333.7
		c2.2,2.3,4.2,4.7,6.2,7.3c-3.4,2.3-7.6,3.2-11.6,2.4C576.9,339.8,578.8,336.3,581.8,333.7z M579.1,354.5c4.3-2.4,8.6-5.1,12.8-8.1
		c0.7,0.9,1.2,1.9,1.9,2.7c-3.5,2.7-5.9,6.7-6.5,11.1C583.9,359.2,581.2,357.4,579.1,354.5C579.2,354.5,579.2,354.5,579.1,354.5z
		 M588.8,360.6c0.5-4,2.6-7.7,5.8-10.1c1.8,2.7,3.4,5.5,4.9,8.2C596.2,360.6,592.4,361.3,588.8,360.6z M600.8,357.9
		c-1.5-2.8-3.1-5.5-4.9-8.4c3.2-2,7.3-2.7,11.1-2C606.2,351.7,604.2,355.5,600.8,357.9z"/>
</g>
<g>
	<g>
		<polygon class="st1" points="670.2,378.9 687.4,396.2 687.8,371.9 709.5,361 686.6,353 682.8,329 668.2,348.4 644.2,344.5 
			658.1,364.4 647,385.9 		"/>
	</g>
	<g>
		<g>
			<path class="st0" d="M686.3,356.1c-4.3-7.3-11.9-10.9-16.7-8l0,0L663,352l0,0c-4.9,3-5.3,11.2-0.9,18.6c2.7,4.6,6.7,7.7,10.5,8.6
				c2.3,0.5,4.5,0.4,6.2-0.7l0,0l6.5-3.8l0,0l0,0h0.1l0,0C690.2,371.8,690.6,363.4,686.3,356.1z M684.7,357.2
				c3.8,6.3,3.6,13.5-0.3,15.9l0,0h-0.1c-0.4,0.3-0.9,0.4-1.5,0.5c-4,0.9-9.3-2.4-12.5-7.8c-1.9-3.1-2.8-6.6-2.7-9.6s1.2-5.1,3-6.2
				c1.3-0.8,3.1-0.9,4.9-0.5C678.6,350.2,682.1,353,684.7,357.2z M663.8,369.6c-3.4-5.7-3.6-11.9-0.9-14.8c0,0.1-0.1,0.4-0.1,0.5
				c-0.1,0.5,0.1,1.2,0.7,1.3l0,0c0.5,0.1,1.1-0.3,1.2-0.8c0.3-1.1,0.8-2.2,1.5-3c-0.3,0.9-0.5,2-0.5,3.1c-0.1,3.4,0.9,7.3,3.1,10.7
				c2.7,4.6,6.6,7.7,10.5,8.6c0.1,0,0.4,0,0.5,0.1c-1.6,0.4-3.6,0-5.7-0.9c-0.5-0.3-1.1,0-1.3,0.4c-0.3,0.5-0.1,1.1,0.4,1.3
				c0.9,0.5,1.9,0.8,2.8,1.1c0.1,0,0.4,0.1,0.5,0.1C672.4,378.5,667.1,375.3,663.8,369.6L663.8,369.6z"/>
		</g>
	</g>
</g>
<g>
	<g>
		<g>
			<path class="st2" d="M117.8,672.3c-7-4.9-14.2-9.8-21.3-15.1l-0.5-0.4v-173l0.4-0.4c7.1-7.1,14.4-14.4,21.9-21.6l0.4-0.4H184
				l0.4,0.4c7.1,6.3,14.3,12.5,21.3,18.5l0.5,0.4l-0.4,39.8l-1.2,0.1c-11.3,0.8-23.3,1.8-36.7,2.8l-1.5,0.1v-3.6
				c0-8.1,0.1-16.3,0.1-24.4c-9.3,0.4-18.6,0.8-27.9,1.2l-0.5,135c7.8-1.9,15.9-3.8,24.5-5.8l0.3-43.2c-3.4,0.5-6.6,1.1-10,1.6
				l-1.6,0.3l0.1-34.5l1.2-0.1c17-2,34.3-4,51.4-5.8l1.5-0.1l-0.8,86.1l-0.4,0.4c-7.3,7.8-14.4,15.9-21.4,24l-0.3,0.3l-0.4,0.1
				c-21,5.4-42.4,11.3-63.1,17.7l-0.7,0.1L117.8,672.3z"/>
			<path class="st1" d="M183.2,462.8c7.1,6.3,14.3,12.5,21.3,18.5c-0.1,12.7-0.3,25.2-0.4,37.9c-12.3,0.9-24.5,1.8-36.7,2.8
				c0.1-9.3,0.1-18.7,0.1-28.1c-10.3,0.4-20.4,0.9-30.6,1.3c-0.1,46-0.4,92-0.5,138c9-2.3,18.2-4.3,27.2-6.5
				c0.1-15.2,0.1-30.5,0.3-45.7c-3.9,0.7-7.7,1.2-11.6,1.9c0-10.5,0.1-21.2,0.1-31.7c17.1-2.2,34.3-4,51.4-5.8
				c-0.3,28.1-0.5,56-0.8,83.9c-7.1,7.8-14.3,15.8-21.4,24c-21.2,5.4-42.2,11.3-63.1,17.7c-7.1-4.9-14.2-9.8-21.3-15.1
				c0-57.2,0-114.5,0-171.7c7.3-7.4,14.6-14.6,21.9-21.6C140.4,462.8,161.9,462.8,183.2,462.8 M184.3,460.1h-1.1H119h-1.1l-0.8,0.7
				c-7.4,7-14.7,14.3-21.9,21.6l-0.8,0.8v1.1V656v1.3l1.1,0.8c7.1,5.3,14.3,10.3,21.4,15.1l1.1,0.7l1.2-0.4
				c20.8-6.3,41.9-12.3,63-17.7l0.8-0.3l0.5-0.7c7-8.1,14.2-16.2,21.4-24l0.7-0.8v-1c0.1-14.2,0.3-28.3,0.4-42.5
				c0.1-13.9,0.3-27.6,0.4-41.5v-3l-3,0.3c-17.1,1.8-34.4,3.8-51.4,5.8l-2.4,0.3v2.4c0,5.4,0,10.7-0.1,16.1c0,5.3,0,10.5-0.1,15.6
				v3.2l3.1-0.5c2.8-0.4,5.7-0.9,8.4-1.3c0,6.6-0.1,13.2-0.1,19.7c0,6.9-0.1,13.8-0.1,20.8c-7.7,1.8-14.8,3.4-21.9,5.1
				c0.1-21.9,0.1-43.8,0.3-65.7c0.1-22.1,0.1-44.2,0.3-66.4c7.7-0.4,16.1-0.7,25.2-1.1c0,8.4-0.1,16.9-0.1,25.2v3l3-0.3
				c13.4-1.1,25.4-2,36.7-2.8l2.4-0.1v-2.4l0.3-21.9l0.1-16.1v-1.2l-0.9-0.8c-7-5.9-14.2-12.1-21.3-18.5L184.3,460.1L184.3,460.1z"
				/>
		</g>
		<g>
			<path class="st2" d="M211,620.1l1.1-0.3c2.2-0.4,4.5-0.8,6.6-1.3c7.7-42.9,15.6-86.2,23.7-128.7l0.1-1.1h1.1
				c16.1-0.5,32.4-0.9,48.6-1.3h1.2l0.1,1.1c6.9,38.8,13.9,77.3,20.8,114.5l8.1-1.1l-0.3,24.7l-1.2,0.1c-16.7,2.4-33.6,5.3-49.9,8.2
				l-1.6,0.3v-1.6c0.1-7.7,0.1-15.4,0.3-23.2v-1.1l1.1-0.1c2.2-0.4,4.5-0.7,6.7-1.1c-0.8-4.6-1.6-9.3-2.4-13.9
				c-7.7,1.1-14.7,2-21.3,3.1c0,0-2,12-2.6,15.1l0.4-0.1c1.9-0.3,3.8-0.7,5.8-0.9l1.6-0.3l-0.3,26.2l-1.1,0.3
				c-15.2,3-30.5,6.2-45.2,9.6l-1.6,0.4L211,620.1z M265.2,531.6c-2.4,13.2-4.7,26.6-7.1,39.9c4.5-0.5,8.8-1.1,13.2-1.6
				C269.3,557.2,267.2,544.4,265.2,531.6z"/>
			<path class="st1" d="M292.2,488.7c7,39.5,13.9,78,20.9,115.9c2.6-0.4,5.3-0.7,7.8-1.1c-0.1,7.3-0.1,14.7-0.3,22
				c-16.7,2.4-33.3,5.1-49.9,8.2c0.1-7.7,0.1-15.4,0.3-23.2c2.7-0.4,5.4-0.8,8.1-1.2c-0.9-5.5-1.9-11.1-3-16.6
				c-7.8,1.1-15.8,2.3-23.6,3.4c-1.1,5.9-2,12-3.1,17.9c2.7-0.4,5.4-0.9,8.1-1.3c-0.1,7.8-0.1,15.6-0.3,23.5
				c-15.1,3-30.2,6.2-45.2,9.6c0.1-8.2,0.1-16.5,0.3-24.8c2.6-0.5,5-0.9,7.6-1.5c8-44.4,15.9-87.5,23.9-129.6
				C259.8,489.7,276,489.1,292.2,488.7 M256.4,573.2c5.4-0.7,10.9-1.3,16.3-2c-2.6-15.8-5-31.7-7.4-47.7
				C262.4,539.8,259.4,556.4,256.4,573.2 M294.5,486h-2.3c-16.2,0.4-32.5,0.9-48.6,1.3h-2.2l-0.4,2.2
				c-8.1,42.2-15.9,85.2-23.6,127.9c-1.9,0.4-3.8,0.7-5.7,1.1l-2.2,0.4v2.2l-0.3,24.8v3.4l3.4-0.8c14.7-3.4,29.8-6.6,45.2-9.6
				l2.2-0.4v-2.2c0-3.9,0.1-7.8,0.1-11.7s0.1-7.8,0.1-11.7v-3.2l-3.2,0.5c-1.5,0.3-2.8,0.5-4.3,0.7c0.4-2.6,0.8-5.1,1.3-7.8l0.8-4.6
				c5.9-0.9,12.3-1.8,19-2.7c0.7,3.8,1.3,7.6,2,11.3c-1.8,0.3-3.5,0.5-5.4,0.8l-2.3,0.4v2.3c-0.1,7.7-0.1,15.4-0.3,23.2v3.2l3.2-0.5
				c16.3-3,33.2-5.8,49.9-8.2l2.3-0.4v-2.3c0-3.6,0.1-7.3,0.1-11.1s0.1-7.3,0.1-11.1v-3.1l-3.1,0.4l-4,0.5l-1.2,0.1
				c-6.7-36.8-13.6-74.9-20.5-113.3L294.5,486L294.5,486z M259.7,569.9c1.6-9.3,3.4-19.2,5.4-30.2c1.5,9.3,3,19.2,4.6,29
				C266.6,569.1,263.3,569.5,259.7,569.9L259.7,569.9z"/>
		</g>
		<g>
			<path class="st2" d="M326.7,601.5l1.2-0.1c2.6-0.3,5.1-0.7,7.7-0.9l1.1-89.7l-8.9,0.4l0.3-24.5h1.3c13.6-0.3,28.1-0.5,45.2-0.9
				h0.9l0.4,0.9c6.9,17.8,14,36.1,21.9,56.1c7.4-18.5,15.1-37.5,22.9-56.8l0.4-0.8h0.9c14-0.1,28.7-0.3,46.3-0.4h1.3l-0.1,22.9h-1.3
				c-2.6,0-5,0-7.6,0.1c-0.1,27.8-0.3,55.6-0.4,83.4c2.6-0.1,5-0.1,7.6-0.3h1.3l-0.1,22.9h-1.3c-17,0.7-34.3,1.6-51.7,2.8l-1.5,0.1
				l0.1-23.3l1.2-0.1c2.4-0.1,4.9-0.3,7.4-0.4l0.3-44.4c-5.5,14.4-11.2,29.3-16.9,44.1l-0.3,0.8h-0.8c-6.6,0.4-13.5,0.9-20.9,1.6
				l-1.1,0.1l-0.4-0.9c-5-12.9-10-26.6-15.5-41.3c-0.1,14.8-0.3,29.7-0.4,44.4c2.4-0.3,4.7-0.4,7.1-0.7l1.5-0.1l-0.3,23.7l-1.2,0.1
				c-15.8,1.6-31.6,3.6-46.7,5.8l-1.5,0.3L326.7,601.5z"/>
			<path class="st1" d="M468.2,485.9c0,6.7,0,13.5-0.1,20.2c-3,0-5.9,0-8.9,0.1c-0.1,28.7-0.3,57.3-0.4,86.1c3-0.1,5.9-0.3,8.9-0.3
				c0,6.7,0,13.5-0.1,20.2c-17.3,0.7-34.5,1.6-51.7,2.8c0-6.9,0.1-13.8,0.1-20.6c2.8-0.1,5.8-0.4,8.6-0.5
				c0.1-17.7,0.3-35.3,0.4-53.1c-6.5,16.9-12.9,33.9-19.4,51c-7,0.5-14,1.1-20.9,1.6c-6.1-15.9-12-32-18.1-48.2
				c-0.1,17.8-0.4,35.5-0.5,53.3c2.8-0.3,5.8-0.5,8.6-0.8c-0.1,7-0.1,14-0.3,21c-15.6,1.6-31.2,3.6-46.8,5.8
				c0.1-7.3,0.1-14.6,0.3-21.9c3-0.4,5.9-0.7,8.9-1.1c0.4-30.8,0.7-61.5,1.1-92.3c-3,0.1-5.9,0.3-8.9,0.4c0.1-7.3,0.1-14.6,0.3-21.9
				c15.1-0.4,30.2-0.7,45.2-0.9c7.7,20.1,15.4,39.8,23.1,59.2c8.1-20.2,16.2-40.2,24.1-59.9C437.3,486.2,452.7,486,468.2,485.9
				 M470.9,483.2h-2.7c-17.3,0.1-32.5,0.3-46.3,0.4h-1.8l-0.7,1.6c-7.4,18.2-14.7,36.3-21.7,53.7c-7.4-18.6-14.2-36-20.6-52.9
				l-0.7-1.8h-1.9c-17,0.3-31.7,0.5-45.2,0.9h-2.6v2.6c0,3.6-0.1,7.3-0.1,10.9s-0.1,7.3-0.1,10.9v2.8l2.8-0.1c1.5,0,3-0.1,4.5-0.1
				c0.5,0,1.1,0,1.6,0l-0.5,42.2l-0.5,44.8c-2.2,0.3-4.3,0.5-6.5,0.8l-2.3,0.3v2.4c0,3.6-0.1,7.3-0.1,10.9c0,3.6-0.1,7.3-0.1,10.9
				v3.1l3.1-0.4c15.2-2.2,30.9-4,46.7-5.8l2.4-0.3v-2.4c0-3.5,0.1-7.1,0.1-10.7c0-3.5,0.1-7,0.1-10.4v-3l-3,0.3
				c-1.9,0.1-3.8,0.4-5.7,0.5c0.1-11.9,0.3-23.7,0.4-35.6c4.6,12.1,8.8,23.6,12.9,34.5l0.7,1.9l2-0.1c7.4-0.7,14.2-1.1,20.9-1.6
				l1.8-0.1l0.5-1.6c4.7-12.5,9.4-25,14.2-37.1c0,3.9,0,7.8-0.1,11.7c0,8-0.1,16.1-0.1,24c-2,0.1-4,0.3-6.2,0.4l-2.6,0.1v2.6
				l-0.1,20.6v3l3-0.3c17.4-1.3,34.7-2.3,51.7-2.8l2.6-0.1v-2.6v-10.1V592v-2.8l-2.8,0.1c-2,0-4,0.1-6.1,0.3
				c0.1-26.8,0.3-53.7,0.4-80.5c2,0,4.2,0,6.2,0h2.7v-2.7l0.1-20.1v-0.1L470.9,483.2L470.9,483.2z"/>
		</g>
		<g>
			<path class="st2" d="M572.7,613.8c-18.2-0.7-36.7-1.1-55-1.1c-13.6,0-27.4,0.3-41,0.7h-1.3l0.1-22.9h1.3c2.6,0,5.1-0.1,7.6-0.1
				l0.3-82.8c-2.3,0-4.5,0-6.7,0h-2.2l0.1-22.8h1.3c13.4,0,26.8-0.1,40.3-0.1c18.2,0,36.7,0,54.9,0.1h1.3l0.1,41.1h-1.3
				c-10-0.1-20.1-0.3-31-0.4h-1.3v-18.1c-6.3,0-12.7,0-18.9,0v29c10.9,0,21.9,0.1,32.6,0.3h1.3v22.8H554
				c-11.2-0.1-22.1-0.3-32.6-0.3V590c6.6,0,12.9,0,19,0.1V572h1.3c10.1,0.1,20.6,0.4,31.2,0.7h1.3v1.3c0,12.8,0.1,25.6,0.1,38.4v1.3
				L572.7,613.8z"/>
			<path class="st1" d="M517.3,485.8c18.3,0,36.6,0,54.9,0.1c0,12.8,0.1,25.6,0.1,38.4c-10.4-0.1-20.6-0.3-31-0.4
				c0-6.1,0-12.1,0-18.1c-7.1,0-14.4,0-21.6,0c0,10.5,0,21.2,0,31.7c11.3,0,22.7,0.1,34,0.3c0,6.7,0,13.5,0,20.1
				c-11.3-0.1-22.7-0.3-34-0.3c0,11.2,0,22.4,0,33.4c7.3,0,14.6,0,21.7,0.1c0-6.1,0-12.1,0-18.1c10.4,0.1,20.8,0.4,31.2,0.7
				c0,12.8,0.1,25.6,0.1,38.4c-18.3-0.8-36.7-1.1-55-1.1c-13.8,0-27.4,0.3-41.1,0.7c0-6.7,0-13.5,0.1-20.1c3-0.1,5.9-0.1,8.9-0.3
				c0.1-28.5,0.1-57.1,0.3-85.5c-3,0-5.9,0-8.9,0c0-6.7,0-13.5,0.1-20.1C490.5,485.9,503.8,485.8,517.3,485.8 M517.3,483.1
				c-13.4,0-27,0-40.3,0.1h-2.7v2.7c0,3.4,0,6.7,0,10.1s0,6.7,0,10.1v2.7h2.7c2,0,4,0,6.2,0c0,13.2-0.1,26.3-0.1,39.5
				c0,13.5-0.1,27.1-0.1,40.6c-2.2,0-4.2,0.1-6.3,0.1H474v2.6c0,3.4,0,6.7,0,10.1c0,3.4,0,6.7,0,10.1v2.8l2.8-0.1
				c13.6-0.4,27.4-0.7,41-0.7c18.2,0,36.7,0.4,54.9,1.1l2.8,0.1v-2.8c-0.1-12.7-0.1-25.5-0.1-38.2v-0.3v-2.6l-2.6-0.1
				c-10.7-0.3-21.2-0.5-31.2-0.7H539v2.7v9v6.3c-5.3,0-10.7-0.1-16.3-0.1v-28.1c10.1,0,20.6,0.1,31.3,0.3h2.7v-2.7
				c0-3.4,0-6.7,0-10.1s0-6.7,0-10.1V535H554c-10.4-0.1-20.9-0.3-31.3-0.3v-26.3c5.9,0,11.3,0,16.2,0v6.3v9v2.7h2.7
				c10.9,0.1,21,0.3,31,0.4h2.7v-2.7c0-6.5,0-12.9-0.1-19.4c0-6.3,0-12.7-0.1-19V483h-2.7C554,483.2,535.5,483.1,517.3,483.1
				L517.3,483.1z"/>
		</g>
		<g>
			<path class="st2" d="M677.8,623.7c-32-4-64.6-7.1-97-8.9h-1.2l-0.1-26.8h1.5c3.1,0.1,6.1,0.3,9.2,0.4l-0.7-100.1l-10.5-0.1
				l-0.1-26.8h97.9l0.4,0.3c7,5.1,14.2,10.4,22,16.3l0.5,0.4l1.5,131.2l-0.7,0.4c-7.1,4.5-14.4,9-21.7,13.5l-0.4,0.3L677.8,623.7z
				 M632.9,591.2c8.6,0.7,17,1.5,25.1,2.2l-1.1-104.3c-8.4-0.1-16.7-0.3-25-0.4C632.2,523,632.6,557.1,632.9,591.2z"/>
			<path class="st1" d="M676.2,462.8c7.3,5.3,14.7,10.8,22,16.2c0.5,43.3,1.1,86.6,1.5,129.9c-7.3,4.6-14.4,9-21.7,13.5
				c-32.2-4.2-64.6-7.1-97-9c0-8.1-0.1-16.1-0.1-24.1c3.5,0.1,7,0.4,10.5,0.5c-0.3-34.3-0.5-68.5-0.7-102.9c-3.5,0-7,0-10.5-0.1
				c0-8.1-0.1-16.1-0.1-24.1C612,462.8,644.1,462.8,676.2,462.8 M659.5,595c-0.4-35.6-0.8-71.4-1.1-107c-9.2-0.1-18.5-0.3-27.6-0.4
				c0.3,35.1,0.7,70,0.9,105.1C640.8,593.3,650.1,594.1,659.5,595 M677,460.1h-0.8H580h-2.7v2.7c0,4,0,8.1,0.1,12c0,4,0,8.1,0.1,12
				v2.7h2.7c1.8,0,3.5,0,5.3,0c0.8,0,1.8,0,2.6,0c0.1,16.3,0.3,32.5,0.4,48.8c0.1,16.2,0.3,32.4,0.4,48.6c-2.6-0.1-5.1-0.3-7.7-0.4
				l-2.8-0.1v2.8c0,4,0,8.1,0.1,12c0,4,0,8.1,0.1,12v2.6l2.6,0.1c32.4,1.9,65,4.9,96.8,8.9l0.9,0.1l0.8-0.5
				c7.3-4.5,14.7-9,21.7-13.5l1.2-0.8v-1.5l-1.5-121.8l-0.1-8.1v-1.3l-1.1-0.8c-7.8-5.9-15-11.2-22-16.3L677,460.1L677,460.1z
				 M634.2,590c-0.3-33.3-0.7-66.5-0.9-99.8c7.4,0.1,14.8,0.3,22.3,0.4l0.5,50.8l0.5,50.4C649.5,591.4,641.9,590.7,634.2,590
				L634.2,590z"/>
		</g>
		<g>
			<path class="st2" d="M818.6,649.1c-16.3-3.9-33-7.4-49.5-10.8L768,638l-0.3-26.3l1.6,0.3c2,0.4,4,0.7,6.1,1.1l-0.8-4.7
				c-0.7-3.5-1.2-7-1.9-10.5c-6.7-1.1-13.8-2-21.3-3.1c0,0-1.8,10.9-2.3,14c2.3,0.4,4.5,0.7,6.7,1.1l1.1,0.1v1.1
				c0.1,7.7,0.1,15.5,0.3,23.2v1.6l-1.6-0.3c-15.1-2.8-30.5-5.4-45.5-7.7l-1.1-0.1l-0.3-24.8l7.8,1.1c7-37.5,14-76.3,20.9-115.3
				l0.1-1.1h1.2c16.1,0.4,32.4,0.9,48.6,1.5h1.1l0.1,1.1c7.8,42.2,15.8,85.9,23.5,129.9c1.8,0.4,8,1.6,8,1.6l0.3,27.8L818.6,649.1z
				 M755.1,570.3c4.5,0.5,8.8,1.1,13.2,1.6c-2.3-13.5-4.6-26.8-6.9-40.1C759.3,544.7,757.1,557.5,755.1,570.3z"/>
			<path class="st1" d="M738.8,489c16.2,0.4,32.4,0.9,48.6,1.5c8,42.5,15.8,85.9,23.6,130.8c2.6,0.5,5.1,1.1,7.7,1.6
				c0.1,8.4,0.1,16.7,0.3,25c-16.5-3.9-33-7.4-49.6-10.8c-0.1-7.8-0.1-15.6-0.3-23.6c2.7,0.4,5.4,0.9,8,1.3
				c-1.1-6.1-2.2-12.1-3.2-18.1c-7.8-1.2-15.8-2.4-23.6-3.5c-0.9,5.5-1.8,11.1-2.7,16.6c2.7,0.4,5.4,0.8,8.1,1.3
				c0.1,7.7,0.1,15.5,0.3,23.2c-15.1-2.8-30.3-5.4-45.5-7.7c-0.1-7.4-0.1-14.8-0.3-22.1c2.6,0.4,5,0.7,7.6,1.1
				C724.7,567.5,731.7,528.6,738.8,489 M769.9,573.4c-2.8-16.7-5.8-33.4-8.6-49.9c-2.6,16.1-5.1,32.1-7.7,47.9
				C759,572.1,764.4,572.8,769.9,573.4 M736.5,486.2l-0.4,2.3c-6.9,38.7-13.9,77-20.8,114.1l-1.2-0.1l-3.8-0.5l-3.1-0.4v3.1
				c0,3.6,0.1,7.4,0.1,11.1c0,3.6,0.1,7.4,0.1,11.1v2.3l2.3,0.4c15,2.3,30.2,4.9,45.5,7.7l3.2,0.7v-3.2c-0.1-7.7-0.1-15.5-0.3-23.2
				V609l-2.3-0.4c-1.8-0.3-3.6-0.5-5.4-0.8c0.4-2.4,0.8-4.9,1.2-7.3l0.7-4c6.7,0.9,13.1,1.9,19,2.8c0.5,3.2,1.2,6.5,1.8,9.8l0.5,2.6
				c-1.3-0.3-2.8-0.5-4.2-0.7l-3.2-0.5v3.2c0,3.9,0.1,7.8,0.1,11.7s0.1,7.8,0.1,11.7v2.2l2.2,0.4c16.5,3.2,33.2,6.9,49.5,10.8
				l3.4,0.8V648l-0.3-25v-2.2l-2.2-0.4l-1.3-0.3c-1.5-0.3-3.1-0.7-4.6-0.9c-7.7-43.7-15.5-87.1-23.3-128.9l-0.4-2.2h-2.2
				c-16.1-0.5-32.5-1.1-48.6-1.5L736.5,486.2L736.5,486.2z M756.7,569.1c1.5-9.2,3.1-18.6,4.7-29.1c1.9,10.9,3.6,21.4,5.3,30.3
				C763.4,569.9,760.2,569.5,756.7,569.1L756.7,569.1z"/>
		</g>
		<g>
			<path class="st2" d="M880.1,671.2c-16.3-5-33.3-9.7-50.4-14.3l-0.9-0.3v-1.1c-0.1-8.6-0.1-17.4-0.1-26v-1.8c0,0,6.3,1.5,8.8,2
				c-0.1-9.7-0.1-19.4-0.1-29.1c-9.2-27.4-18.7-55-28.6-82l-6.9-0.5l-0.3-27.8h1.5c16.3,0.7,32.8,1.2,48.7,1.9h1.2l0.1,29.7
				l-7.1-0.5c3.5,10.5,7,21.9,10.7,33.4c3.4-10.5,6.7-21.2,10.1-31.7c-1.9-0.1-3.8-0.3-5.8-0.4l-1.2-0.1v-1.2c0-9-0.1-18.2-0.1-27.2
				v-1.3h1.5c16.1,0.7,30.9,1.3,45.3,2.2h1.2v31.8l-6.9-0.7c-9.2,27.6-18.3,54.6-27.4,80.3l0.1,32.2c2.6,0.7,5.1,1.3,7.7,2l0.9,0.3
				v1.1c0,8.9,0.1,17.8,0.1,26.7v3.1L880.1,671.2z"/>
			<path class="st1" d="M802.6,491.7c16.2,0.7,32.5,1.2,48.7,1.9c0,8.9,0.1,17.9,0.1,26.8c-2.6-0.3-5.1-0.4-7.8-0.7
				c4.2,12.9,8.4,26,12.5,39.4c3.9-12.3,8-24.7,12-37.4c-2.6-0.3-5-0.4-7.6-0.7c0-9-0.1-18.2-0.1-27.2c15.1,0.7,30.2,1.3,45.3,2.2
				c0,9.7,0,19.4,0,29.1c-2.2-0.3-4.3-0.4-6.5-0.5c-9.3,28.3-18.6,55.4-27.8,81.5c0,11.2,0.1,22.4,0.1,33.6c2.8,0.7,5.8,1.5,8.6,2.3
				c0,9.3,0.1,18.6,0.1,28.1c-16.7-5.1-33.6-9.8-50.6-14.3c-0.1-8.6-0.1-17.4-0.1-26c3,0.7,5.8,1.3,8.8,2c-0.1-10.4-0.1-20.8-0.3-31
				c-9.6-28.7-19.3-56.5-29-83.1c-2.2-0.1-4.3-0.3-6.5-0.4C802.8,508.4,802.7,500.1,802.6,491.7 M799.9,488.9v2.8
				c0,4.2,0.1,8.4,0.1,12.4c0,4.3,0.1,8.5,0.1,12.7v2.4l2.4,0.1c1.1,0,2.2,0.1,3.2,0.3c0.5,0,0.9,0,1.5,0.1
				c9.7,26.6,19.2,53.8,28.2,81.1c0.1,9,0.1,18.2,0.1,27.2c-1.8-0.4-3.6-0.8-5.4-1.2l-3.4-0.8v3.4c0,8.8,0.1,17.4,0.1,26v2l2,0.5
				c17.3,4.5,34.1,9.3,50.4,14.3l3.5,1.1v-3.6c0-9.3,0-18.6-0.1-28.1v-2l-2-0.5c-2.2-0.5-4.5-1.2-6.6-1.8v-14.7v-16.3
				c8.9-25.2,17.9-51.8,27-79c0.3,0,0.7,0,0.9,0.1c1.1,0.1,2.3,0.3,3.4,0.3l3,0.3v-3v-29.1v-2.6l-2.6-0.1
				c-14.6-0.7-29.4-1.3-45.3-2.2l-2.8-0.1v2.8c0,9,0.1,18.2,0.1,27.2v2.4l2.4,0.3c1.3,0.1,2.7,0.3,4.2,0.4
				c-2.7,8.8-5.5,17.4-8.4,26.2c-3-9.4-5.9-18.6-8.8-27.5c1.2,0.1,2.4,0.3,3.8,0.3l3,0.3v-3c0-4.5,0-8.9-0.1-13.5
				c0-4.5,0-9-0.1-13.5v-2.6l-2.6-0.1c-16.1-0.7-32.5-1.3-48.7-1.9L799.9,488.9L799.9,488.9z"/>
		</g>
	</g>
</g>
<g>
	<path class="st1" d="M478.4,471.6c-1.3,0-2.4-0.3-3.1-0.6h-0.1l-0.1-0.1c-1.9-1.1-1.3-3.6-0.8-5.9l0.1-0.3c0-0.2,0.1-0.3,0.1-0.5
		s0.1-0.4,0.1-0.5c0.1-0.9,0.7-2.3,1.7-4.5c0.3-0.7,0.7-1.5,1.1-2.4c1.9-4.2,2.4-5.6,2.5-5.9c0.4-2,2.5-6.2,3.7-7.4
		c0.7-0.7,1.3-1.3,1.5-3.3c0.1-0.4,0-1.2,0-2c0-0.5,0-1,0-1.5v-1c0-3.2,0-6.7,0.7-9.3c0.4-1.6,1-3.2,1.9-4.7
		c0.3-0.8,0.8-1.7,0.8-2.2c0-0.4,0-0.9,0.1-1.4v-0.6c0.1-2.1,0.2-5.1,1.4-7.4c0.3-0.7,0.6-1.6,0.9-2.5c0.1-0.3,0.2-0.6,0.3-0.9
		l0.2-0.7c0.4-1.6,0.9-3.5,2.2-4.9c1.3-1.8,2.4-2.8,3.2-3.3c-0.2-0.5-0.3-1-0.4-1.6v-0.1v-0.4c-0.6-0.4-0.8-1-0.8-1.4
		c-0.1-0.8,0.2-1.9,2.2-2.9c0.1-0.2,0.2-0.5,0.2-0.7c0.1-0.2,0.2-0.5,0.2-0.7c0.1-0.5,0.4-0.9,0.6-1.3c0.7-1.8,2.7-2.8,4.7-3.2
		c-2-2.7-4.4-6.3-6.3-9.3c-0.2-0.4-0.4-0.6-0.5-0.9c-0.1-0.2-0.2-0.3-0.3-0.5c-0.5-0.7-0.7-1.5-0.5-2.3c0.1-1.1,1.1-1.8,1.8-2.3
		l0.3-0.2l0.3-0.1c0.4-0.3,1-0.6,1.8-0.6c1.1,0,1.8,0.7,2.3,1.3c0.1,0.1,0.3,0.3,0.3,0.3l0.6,0.9c1.9,2.7,6.9,9.8,8.6,12.8
		c0.3,0.5,0.6,1.1,1,1.7c0.3,0.5,0.6,1,0.9,1.5c2.3,4,3.9,6.7,4.6,7.6c0.5,0.8,0.9,1.3,1.3,1.8c1.3,0.1,2.4,0.7,2.9,1.7
		c0.3,0.7,0.8,1.6,1.2,2l0.1,0.1l0.1,0.1c0.3,0.4,0.4,0.7,0.5,0.9l0.1,0.2l0.1,0.2l0,0c0,0,0,0,0.1,0.1c0.7,0.5,1,1.1,1.2,1.5
		c0.1,0.1,0.1,0.2,0.2,0.3l0.1,0.1l0.1,0.4l0.1,0.1v0.1c0,0,1.3,1.9,1.3,3c0,1.6-2,2.8-2.4,3.1l-0.1,0.1h-0.1
		c-0.1,0-0.2,0.1-0.3,0.1c-0.3,0.1-0.6,0.2-1,0.2c-0.6,0-1.2-0.1-1.7-0.4c-0.1,0-0.1,0-0.2-0.1c-1.3,1.1-4.2,3.3-5.9,4.4
		c-1.3,0.8-3,1.5-4.9,2c-0.3,0.1-0.5,0.2-0.8,0.3c-0.2,0.4-0.4,0.9-0.5,1.1c0.3,1.1,0.4,3.2-0.7,4.8l-0.1,0.1l-0.4,0.4
		c0,0.1,0.1,0.3,0.2,0.6c0.3,0.9,1.8,3.9,3.2,6.5c0.4,0.8,0.9,1.7,1.3,2.5c1.3,2.7,2.6,5,3,5.8l0,0v0.1c1.6,3.7,2.6,5,3.2,5.5
		c1.1,1.1,2.2,3.7,3.8,8.1c0.4,0.9,0.7,1.8,1,2.7c0.3,0.9,0.6,1.6,0.8,2.1c0.6,1,2.1,3.9,2.5,5.7c0.2,0.2,0.5,0.4,0.7,0.5
		c1,0.6,1.6,1.1,1.8,1.9l0,0c0.2,0.5,0.7,1.7,0,3c-0.3,0.7-1,1.4-2.4,1.4h-5.3c-2,0-2.8-1.1-3.2-1.9v-0.1v-0.1c-0.1-0.2-0.4-1-1-1.7
		v-0.1v-0.1c-0.6-1.1-1-1.9-1.2-2.5c-0.1-0.2-0.3-0.7-0.3-0.7v-0.1c-0.1-0.4-1.5-2.8-2.3-4.2l-0.3-0.6c-1.9-3.3-3.1-5.6-3.6-6.8
		c-0.8-1.6-1.9-3-3.5-4.3l-0.1-0.1l-0.4-0.4c-0.5-0.4-1.2-1.2-2.1-2.3c-0.3-0.4-0.7-0.8-1.1-1.3c-0.7-0.8-1.4-1.6-2-2.2
		c-0.5-0.5-1.1-1.1-1.6-1.7c-0.2-0.2-0.4-0.4-0.5-0.6c-1.5,1.5-1.8,2.3-2.7,4.4c-0.1,0.3-0.2,0.6-0.3,0.8c-0.2,0.5-0.3,1-0.5,1.4
		l-0.1,0.3c-0.4,1-0.7,1.8-1.2,2.6c-0.4,0.6-2,3.3-3.5,5.8c-1.1,1.8-2.2,3.8-2.7,4.6c-0.8,1.3-1.7,3.2-2.4,4.4
		c-0.3,0.7-0.5,1-0.6,1.2c-0.2,0.4-0.3,0.7-0.3,1c0.9,0.8,2.1,2.3,1.8,3.8c-0.2,0.9-0.9,1.5-1.9,1.8h-0.1c0,0-0.5,0.1-0.8,0.1
		c-0.7,0.1-1.5,0.2-2.1,0.2c-0.2,0-0.5,0-0.7,0c-0.3,0-0.5,0.1-0.8,0.1h-2V471.6z M511.6,397.3c0.5,0.3,1.1,0.6,1.5,0.9l0.1,0.1
		l0.1,0.1c0.5,0.6,0.9,1.2,1.3,1.8c0-0.1,0.1-0.2,0.2-0.4c-0.5-0.8-1.5-2.3-2.7-3.9c-0.1,0.4-0.1,0.7-0.2,1
		C511.7,396.9,511.7,397.1,511.6,397.3z"/>
	<path class="st0" d="M500,370.4c0.8,0,1.3,0.7,1.8,1.2l0.5,0.8c1.9,2.7,6.9,9.8,8.6,12.8c0.5,0.9,1.2,2,1.9,3.2
		c1.8,3.1,3.8,6.5,4.6,7.7c0.7,1.1,1.3,1.8,1.6,2.2c0.1,0,0.1,0,0.3,0c0.9,0,1.8,0.4,2.2,1.2c0.4,0.8,0.9,1.8,1.5,2.3
		c0.3,0.4,0.4,0.7,0.5,0.9c0.1,0.3,0.1,0.4,0.5,0.7c0.7,0.5,0.9,1.2,1.2,1.6c0.1,0.3,0.1,0.4,0.4,0.7c0.3,0.4,1.1,1.8,1.1,2.4
		c0,1.1-1.9,2.2-1.9,2.2c-0.4,0.1-0.7,0.3-1.1,0.3c-0.4,0-0.9-0.1-1.3-0.3c-0.3-0.1-0.7-0.3-0.8-0.3c-0.4,0.5-3.9,3.2-6.2,4.7
		c-1.5,0.9-3.2,1.5-4.6,1.9c-0.4,0.1-0.9,0.3-1.2,0.4c-0.4,0.7-0.9,1.8-0.8,2c0.3,0.9,0.4,2.8-0.5,4.2c-0.1,0.1-0.3,0.3-0.4,0.4
		c-0.3,0.4-0.4,0.4,0.1,1.6c0.4,1.2,2.7,5.5,4.5,9c1.3,2.7,2.6,5.1,3,5.8c1.2,2.8,2.4,5,3.5,5.9c0.9,0.9,2,3.6,3.5,7.7
		c0.8,2,1.5,4,1.9,4.9c0.7,1.1,2.3,4.3,2.4,5.7c0.3,0.3,0.8,0.7,1.2,0.9c0.8,0.5,1.2,0.8,1.3,1.2c0.1,0.3,0.7,1.3,0.1,2.3
		c-0.1,0.3-0.5,0.8-1.5,0.8c-0.3,0-0.7,0-1.1,0c-0.5,0-1.1,0-1.6,0s-0.9,0-1.2,0s-0.4,0-0.5,0c-0.3,0-0.7,0-0.9,0
		c-1.5,0-2-0.7-2.3-1.3c-0.1-0.3-0.5-1.2-1.1-2c-0.8-1.5-1.2-2.4-1.5-3c-0.1-0.4-1.6-3.1-2.7-5.1c-1.5-2.6-3-5.3-3.6-6.7
		c-1.1-2.3-2.7-3.8-3.8-4.7l-0.4-0.4c-0.5-0.4-1.2-1.2-2-2.2c-1.1-1.2-2.3-2.6-3.2-3.5c-0.5-0.5-1.1-1.1-1.5-1.6s-1.1-1.3-1.3-1.3
		c0,0-0.1,0-0.5,0.4c-1.8,1.8-2.2,2.7-3.1,5c-0.3,0.8-0.5,1.6-0.8,2.2c-0.4,1.1-0.7,2-1.2,2.8c-0.4,0.7-2,3.4-3.5,5.8
		c-1.1,1.9-2.2,3.8-2.7,4.6c-1.2,2-2.8,5.4-3,5.7c-0.4,0.9-0.5,1.8-0.5,1.9c0.3,0.1,2.2,1.8,1.9,3.1c-0.1,0.5-0.5,0.9-1.2,1.1
		c-0.8,0.1-1.9,0.3-2.7,0.3c-0.5,0-1.1,0.1-1.5,0.1c-1,0-1.5,0-2,0c-1.2,0-2.2-0.3-2.8-0.5c-1.3-0.8-0.8-2.8-0.3-5.1
		c0.1-0.4,0.3-0.9,0.3-1.2c0.1-0.9,1.2-3.1,2.7-6.5c1.1-2.4,2.4-5.3,2.6-6.1c0.4-2,2.4-5.9,3.4-6.9c0.8-0.8,1.5-1.5,1.8-3.9
		c0.1-0.8,0-2.2,0-3.6c0-3.2-0.1-7.3,0.7-10c0.5-1.9,1.2-3.4,1.8-4.5c0.5-1.1,0.9-2,0.9-2.7c0-0.4,0-0.8,0.1-1.3
		c0.1-2,0.1-5.3,1.3-7.7c0.5-1.1,0.8-2.3,1.2-3.6c0.5-1.8,0.9-3.8,2.2-5.3c1.6-2.3,3-3.1,3.6-3.5c0.1,0,0.1-0.1,0.1-0.1s0,0,0.1,0
		c-0.4-0.4-0.7-1.1-0.8-2c0-0.4,0-0.7,0-0.9c-0.7-0.3-0.8-0.8-0.8-0.9c-0.1-0.8,0.8-1.5,1.8-2c0.3-0.1,0.5-1.1,0.8-1.9
		c0.1-0.4,0.3-0.8,0.5-1.2c0.8-1.9,3.5-2.8,5.7-2.8c0.1,0,0.1,0,0.1,0c-2.4-2.8-5.7-8-7.4-10.7c-0.4-0.7-0.8-1.2-0.8-1.3
		c-0.4-0.5-0.5-1.1-0.4-1.6c0.1-0.8,0.9-1.3,1.6-1.8l0.3-0.1C499.1,370.6,499.5,370.4,500,370.4 M515.2,402.7c0-0.3-0.1-0.5-0.1-0.8
		c0-0.7,0.3-1.5,0.7-2.2c-0.5-0.9-2.3-3.6-4.5-6.5c0,0,0,0.1,0,0.3c-0.1,1.2-0.3,2.3-0.5,3c-0.1,0.4-0.4,0.8-0.5,1.2
		c0.7,0.4,1.6,0.9,2.2,1.3c1,1.1,1.6,2.3,1.6,3.1c0.1,0.1,0.7,0.4,0.8,0.5C515,402.6,515,402.7,515.2,402.7 M500,368.4
		c-1,0-1.8,0.4-2.2,0.7l0,0l-0.3,0.1l-0.2,0.2l-0.2,0.1c-0.8,0.6-2,1.4-2.2,3c-0.2,1,0,2.1,0.6,2.9c0.1,0.2,0.2,0.3,0.3,0.5
		c0.1,0.2,0.3,0.5,0.5,0.8l0,0l0,0c1.7,2.6,3.6,5.7,5.5,8.2c-1.7,0.6-3.3,1.7-4,3.4c-0.2,0.4-0.4,0.9-0.6,1.4
		c-0.1,0.2-0.2,0.5-0.2,0.7c0,0.1-0.1,0.2-0.1,0.3c-2.1,1.2-2.5,2.6-2.4,3.7c0,0.6,0.3,1.2,0.8,1.7l0,0v0.1c0,0.4,0.1,0.8,0.2,1.1
		c-0.8,0.6-1.8,1.6-2.8,3c-1.4,1.6-1.9,3.6-2.4,5.3c-0.1,0.2-0.1,0.4-0.2,0.7c-0.1,0.3-0.2,0.6-0.3,0.9c-0.3,0.9-0.5,1.7-0.8,2.4
		c-1.2,2.5-1.4,5.7-1.5,7.8c0,0.2,0,0.4,0,0.6c-0.1,0.6-0.1,1.1-0.1,1.5c0,0.3-0.4,1.2-0.7,1.8c-0.9,1.6-1.5,3.2-1.9,4.9
		c-0.8,2.7-0.8,6.4-0.8,9.6v1c0,0.5,0,1,0,1.5c0,0.7,0,1.5,0,1.9c-0.2,1.7-0.6,2.1-1.2,2.7c-1.3,1.3-3.5,5.6-3.9,7.9
		c-0.1,0.3-0.5,1.4-2.5,5.7c-0.4,0.9-0.7,1.7-1.1,2.4c-1.2,2.6-1.7,3.8-1.8,4.7v0.1l0,0c0,0.1-0.1,0.2-0.1,0.3
		c-0.1,0.2-0.1,0.4-0.2,0.5l0,0l0,0l-0.1,0.3c-0.5,2.4-1.2,5.4,1.3,6.9l0.2,0.1l0.2,0.1c0.8,0.3,2,0.6,3.4,0.6h2
		c0.3,0,0.6,0,0.9-0.1c0.2,0,0.5,0,0.6,0c0.7,0,1.6-0.1,2.3-0.2c0.2,0,0.5-0.1,0.7-0.1h0.2h0.1c1.4-0.4,2.3-1.3,2.6-2.6
		c0.4-1.6-0.6-3.2-1.7-4.3c0-0.1,0.1-0.2,0.1-0.2c0.1-0.2,0.3-0.5,0.6-1.2c0.6-1.2,1.6-3.1,2.3-4.4c0.5-0.8,1.6-2.6,2.7-4.6
		c1.5-2.4,3.1-5.1,3.5-5.8c0.5-0.9,0.9-1.8,1.2-2.8l0.1-0.2c0.2-0.5,0.4-1,0.5-1.5c0.1-0.3,0.2-0.5,0.3-0.8c0.6-1.6,0.9-2.4,1.7-3.3
		c0.4,0.5,1,1,1.4,1.5c0.5,0.5,1.2,1.3,2,2.1c0.4,0.4,0.8,0.9,1.1,1.3c0.9,1.2,1.6,1.9,2.2,2.4l0.3,0.3l0.1,0.1l0.1,0.1
		c1.5,1.2,2.5,2.5,3.2,4c0.6,1.3,1.8,3.5,3.7,6.9l0.3,0.6c0.7,1.3,2,3.6,2.2,4.1v0.1l0.1,0.2c0.1,0.2,0.2,0.3,0.3,0.6
		c0.3,0.6,0.7,1.4,1.3,2.5l0.1,0.1l0.1,0.1c0.5,0.6,0.8,1.3,0.8,1.4v0.1l0.1,0.1c0.8,1.6,2.2,2.4,4.1,2.4h0.9h0.5h1.2h1.6h1.1
		c1.8,0,2.9-1,3.3-1.9c0.9-1.7,0.2-3.3,0-3.8l0,0c-0.4-1.1-1.3-1.8-2.1-2.2l-0.1-0.1h-0.1c-0.1,0-0.1-0.1-0.2-0.2
		c-0.5-2-2-4.8-2.5-5.6c-0.2-0.4-0.5-1.2-0.8-2s-0.7-1.8-1-2.7c-1.9-5.3-2.9-7.3-4-8.4l-0.1-0.1l-0.1-0.1c-0.3-0.3-1.3-1.3-2.9-5.1
		v-0.1L517,439c-0.4-0.7-1.7-3.1-2.9-5.7l0,0l0,0c-0.4-0.8-0.8-1.6-1.3-2.5c-1.3-2.4-2.8-5.5-3.1-6.3v-0.1l0,0l0,0l0.1-0.2
		c1.1-1.7,1.2-3.8,0.9-5.3c0-0.1,0.1-0.2,0.2-0.3c0.1,0,0.2-0.1,0.3-0.1l0,0l0,0c2-0.6,3.7-1.3,5.1-2.1l0,0l0,0c1.5-1,4-2.8,5.5-4.1
		c0.5,0.2,1.1,0.3,1.7,0.3c0.6,0,1.1-0.2,1.4-0.3c0.1,0,0.1-0.1,0.2-0.1l0.3-0.1l0.2-0.1c0.7-0.4,2.9-1.8,2.9-3.9
		c0-1.5-1.5-3.6-1.5-3.6l-0.1-0.1l0,0l0,0l-0.1-0.3l-0.2-0.3c0,0-0.1-0.1-0.1-0.2c-0.2-0.4-0.6-1.1-1.4-1.7v-0.1v-0.1
		c-0.1-0.2-0.3-0.6-0.7-1.1l-0.1-0.2l-0.2-0.1c-0.3-0.2-0.8-1.2-1-1.7c-0.6-1.2-1.8-2-3.3-2.3c-0.3-0.3-0.6-0.8-0.9-1.3
		c-0.5-0.7-1.6-2.6-4.6-7.6c-0.3-0.5-0.6-1-0.9-1.5c-0.4-0.6-0.7-1.2-1-1.6c-1.7-3.1-6.6-10-8.7-12.9l0,0l-0.5-0.8l-0.1-0.2
		l-0.2-0.2c-0.1-0.1-0.1-0.1-0.2-0.2C502.5,369.4,501.5,368.4,500,368.4L500,368.4z"/>
</g>
<g>
	<g>
		<polygon class="st1" points="205.6,412.2 205.6,405.6 208,405.6 208,383.7 205.6,383.7 205.6,377 228.9,377 228.9,386.1 
			222.3,386.1 222.3,383.7 214.6,383.7 214.6,391.3 217.5,391.3 217.5,388.9 224.2,388.9 224.2,400.4 217.5,400.4 217.5,397.9 
			214.6,397.9 214.6,405.6 222.3,405.6 222.3,403.2 228.9,403.2 228.9,412.2 		"/>
		<path class="st0" d="M228,378v7.1h-4.7v-2.4h-9.6v9.6h4.7v-2.4h4.7v9.6h-4.7V397h-4.7v9.6h9.6v-2.4h4.7v7.1h-21.4v-4.7h2.4v-23.9
			h-2.4V378H228 M229.9,376.1H228h-21.4h-1.9v1.9v4.7v1.9h1.9h0.5v20.1h-0.5h-1.9v1.9v4.7v1.9h1.9H228h1.9v-1.9v-7.1v-1.9H228h-4.7
			h-1.9v1.9v0.5h-5.8v-5.8h0.9v0.4v1.9h1.9h4.7h1.9v-1.8v-9.6V388h-1.9h-4.7h-1.9v1.9v0.5h-0.9v-5.8h5.8v0.5v1.9h1.9h4.7h1.9v-1.9
			V378V376.1L229.9,376.1z"/>
	</g>
	<g>
		<polygon class="st1" points="236.2,412.2 231.8,407.9 231.8,403.2 238.5,403.2 238.5,405.6 246.2,405.6 246.2,397.9 236.2,397.9 
			231.8,393.6 231.8,381.4 236.2,377 248.3,377 252.8,381.4 252.8,386.1 246.2,386.1 246.2,383.7 238.5,383.7 238.5,391.3 
			248.3,391.3 252.8,395.7 252.8,407.9 248.3,412.2 		"/>
		<path class="st0" d="M248.1,378l3.8,3.8v3.4h-4.7v-2.4h-9.6v9.6h10.5l3.8,3.8v11.5l-3.8,3.8h-11.5l-3.8-3.8v-3.4h4.7v2.4h9.6V397
			h-10.5l-3.8-3.8v-11.5l3.8-3.8L248.1,378 M248.8,376.1H248h-11.5h-0.8l-0.5,0.5l-3.8,3.8l-0.5,0.5v0.8v11.5v0.8l0.5,0.5l3.8,3.8
			l0.5,0.5h0.8h8.6v5.8h-5.8v-0.5v-1.9h-1.9h-4.7h-1.9v1.9v3.4v0.8l0.5,0.5l3.8,3.8l0.5,0.5h0.8h11.5h0.8l0.5-0.5l3.8-3.8l0.5-0.5
			v-0.8V396v-0.7l-0.5-0.5l-3.8-3.8l-0.5-0.5h-0.8h-8.6v-5.9h5.8v0.5v1.9h1.9h4.7h1.9v-1.9v-3.4V381l-0.5-0.5l-3.8-3.8L248.8,376.1
			L248.8,376.1z"/>
	</g>
	<g>
		<polygon class="st1" points="262.8,412.2 262.8,405.6 265.2,405.6 265.2,383.7 262.4,383.7 262.4,386.1 255.6,386.1 255.6,377 
			281.4,377 281.4,386.1 274.8,386.1 274.8,383.7 271.8,383.7 271.8,405.6 274.2,405.6 274.2,412.2 		"/>
		<path class="st0" d="M280.4,378v7.1h-4.7v-2.4H271v23.9h2.4v4.7h-9.6v-4.7h2.4v-23.9h-4.7v2.4h-4.7V378H280.4 M282.3,376.1h-1.9
			h-23.9h-1.9v1.9v7.1v1.9h1.9h4.7h1.9v-1.9v-0.5h0.9v20.1h-0.5h-1.9v1.9v4.7v1.9h1.9h9.6h1.9v-1.9v-4.7v-1.9h-1.9h-0.5v-20.1h0.9
			v0.5v1.9h1.9h4.7h1.9v-1.9V378L282.3,376.1L282.3,376.1z"/>
	</g>
</g>
<g>
	<g>
		<path class="st1" d="M717.9,411.3v-15.2l3.8-3.8h10.5v-9.6h-9.6v2.4h-4.7v-3.4l3.8-3.8h11.5l3.8,3.8v11.5l-3.8,3.8h-10.5v9.6h9.6
			v-2.4h4.7v7.1H717.9L717.9,411.3L717.9,411.3z"/>
	</g>
	<g>
		<path class="st1" d="M745.5,411.3l-3.8-3.8v-25.8l3.8-3.8H757l3.8,3.8v25.8l-3.8,3.8H745.5z M746.5,406.6h9.6v-23.9h-9.6V406.6z"
			/>
	</g>
	<g>
		<path class="st1" d="M768,411.3v-4.7h4.7v-20.4h-3.5v-3.5l3.5-4.7h4.7v28.6h4.7v4.7H768L768,411.3z"/>
	</g>
	<g>
		<path class="st1" d="M789.5,404.2h4.7v2.4h9.6V397h-10.5l-3.8-3.8v-11.5l3.8-3.8h11.5l3.8,3.8v25.8l-3.8,3.8h-11.5l-3.8-3.8V404.2
			z M803.8,382.7h-9.6v9.6h9.6V382.7z"/>
	</g>
</g>
<g>
	<g>
		<g>
			<path class="st3" d="M293.9,734.1c0.3-1.8,0.7-3.4,0.9-5.1c0.9,0.1,1.8,0.3,2.7,0.4c1.5-8.5,3.1-17.1,4.6-25.6
				c-1.8-0.3-3.5-0.7-5.3-0.9c-0.1,0.8-0.3,1.8-0.5,2.6c-1.8-0.3-3.5-0.7-5.3-0.9c0.5-2.6,0.9-5.1,1.5-7.7
				c8.6,1.6,17.3,3.1,25.9,4.6c-0.4,2.6-0.8,5.1-1.2,7.7c-1.8-0.3-3.5-0.5-5.3-0.8c0.1-0.8,0.3-1.8,0.4-2.6
				c-1.8-0.3-3.5-0.5-5.3-0.9c-1.5,8.5-3,17.1-4.5,25.6c0.9,0.1,1.8,0.3,2.7,0.4c-0.3,1.8-0.5,3.4-0.8,5.1
				C301.1,735.3,297.6,734.7,293.9,734.1z"/>
			<path class="st3" d="M318.1,738.1c5-11.5,10-23.1,14.8-34.7c1.8,0.3,3.5,0.5,5.3,0.8c1.2,12.5,2.7,25,4.2,37.5
				c-1.8-0.3-3.6-0.5-5.4-0.8c-0.4-3.6-0.8-7.1-1.2-10.7c-2.7-0.4-5.3-0.8-8-1.2c-1.3,3.4-2.8,6.6-4.2,9.8
				C321.7,738.7,320,738.4,318.1,738.1z M334,714.2c-1.3,3.4-2.8,6.6-4.2,10c1.8,0.3,3.5,0.5,5.3,0.8
				C334.8,721.4,334.4,717.7,334,714.2z"/>
			<path class="st3" d="M348.7,734.7c1.8,0.3,3.5,0.4,5.4,0.7c-0.1,0.8-0.3,1.8-0.3,2.6c3.5,0.4,7.1,0.9,10.7,1.3
				c0.4-3.5,0.8-6.9,1.2-10.4c-3.9-0.4-7.8-0.9-11.7-1.5c-1.2-1.6-2.4-3.1-3.6-4.7c0.5-4.2,1.1-8.2,1.6-12.4
				c1.6-1.2,3.1-2.4,4.7-3.6c4.2,0.5,8.4,1.1,12.5,1.5c1.2,1.5,2.4,3.1,3.8,4.6c-0.1,1.2-0.3,2.4-0.4,3.6c-1.8-0.3-3.5-0.4-5.3-0.7
				c0.1-0.8,0.1-1.8,0.3-2.6c-3.5-0.4-7-0.8-10.5-1.3c-0.4,3.5-0.8,6.9-1.3,10.4c3.9,0.5,7.8,0.9,11.6,1.3c1.2,1.6,2.6,3.1,3.8,4.6
				c-0.5,4.2-0.9,8.4-1.3,12.4c-1.6,1.2-3.2,2.4-4.7,3.6c-4.3-0.5-8.6-1.1-12.9-1.6c-1.2-1.6-2.6-3.1-3.8-4.7
				C348.3,737.2,348.6,736,348.7,734.7z"/>
			<path class="st3" d="M382.7,746.5c1.1-10.4,2.2-20.8,3.1-31.2c-2.6-0.3-5.3-0.5-7.8-0.8c0.1-1.8,0.4-3.5,0.5-5.1
				c7,0.8,13.9,1.5,20.9,2c-0.1,1.8-0.3,3.5-0.4,5.1c-2.6-0.3-5.3-0.4-7.8-0.7c-0.9,10.4-2,20.8-3,31.2
				C386.3,746.9,384.4,746.7,382.7,746.5z"/>
			<path class="st3" d="M401.6,748.2c1.1-12.1,2-24.3,3.1-36.4c7,0.5,13.9,1.1,20.9,1.6c-0.1,1.8-0.3,3.5-0.4,5.3
				c-5.3-0.4-10.5-0.7-15.8-1.1c-0.3,3.5-0.5,6.9-0.8,10.4c3.5,0.3,7,0.5,10.7,0.8c-0.1,1.8-0.3,3.5-0.4,5.3
				c-3.5-0.3-7.1-0.5-10.7-0.8c-0.3,3.5-0.5,6.9-0.8,10.4c5.4,0.4,10.8,0.8,16.2,1.2c-0.1,1.8-0.3,3.5-0.4,5.3
				C416,749.4,408.7,748.9,401.6,748.2z"/>
		</g>
		<path class="st3" d="M448.8,751.2c0.1-1.8,0.1-3.5,0.3-5.3c0.9,0,1.8,0.1,2.7,0.1c0.4-8.6,0.7-17.4,1.1-26c-1.8,0-3.5-0.1-5.3-0.3
			c0,0.8-0.1,1.8-0.1,2.6c-1.8-0.1-3.5-0.1-5.3-0.3c0.1-2.6,0.3-5.3,0.4-7.8c8.8,0.4,17.4,0.8,26.2,0.9c-0.1,2.6-0.1,5.3-0.1,7.8
			c-1.8,0-3.5-0.1-5.3-0.1c0-0.8,0-1.8,0.1-2.6c-1.8,0-3.5-0.1-5.3-0.1c-0.3,8.6-0.7,17.4-0.9,26c0.9,0,1.8,0,2.7,0.1
			c0,1.8-0.1,3.5-0.1,5.3C455.9,751.6,452.4,751.5,448.8,751.2z"/>
		<path class="st3" d="M473.1,752c0.3-12.1,0.5-24.3,0.8-36.6c1.8,0,3.5,0,5.3,0.1c-0.1,5.3-0.1,10.4-0.3,15.6
			c3.5,0,7.1,0.1,10.7,0.1c0-5.3,0.1-10.4,0.1-15.6c1.8,0,3.5,0,5.3,0c0,12.1-0.1,24.3-0.1,36.6c-1.8,0-3.6,0-5.4,0
			c0-5.3,0.1-10.4,0.1-15.6c-3.5,0-7.1,0-10.7-0.1c-0.1,5.3-0.1,10.4-0.3,15.6C476.7,752.1,474.9,752.1,473.1,752z"/>
		<path class="st3" d="M500.2,752.3c0-12.1,0-24.3-0.1-36.6c7,0,14-0.1,20.9-0.3c0,1.8,0.1,3.5,0.1,5.3c-5.3,0.1-10.5,0.1-15.8,0.3
			c0,3.5,0,7,0.1,10.4c3.5,0,7.1,0,10.7-0.1c0,1.8,0,3.5,0.1,5.3c-3.5,0-7.1,0.1-10.7,0.1c0,3.5,0,7,0.1,10.4
			c5.4,0,10.8-0.1,16.2-0.3c0,1.8,0.1,3.5,0.1,5.3C514.6,752.3,507.4,752.3,500.2,752.3z"/>
		<path class="st3" d="M538.1,715c3.5-0.1,7-0.3,10.5-0.4c0.1,1.8,0.1,3.5,0.3,5.3c-0.8,0-1.8,0.1-2.6,0.1c2,6.9,4.2,13.8,6.2,20.6
			c1.5-7,2.8-14,4.3-21c-0.8,0-1.8,0.1-2.6,0.1c-0.1-1.8-0.1-3.5-0.3-5.3c3.5-0.1,7-0.4,10.5-0.5c0.1,1.8,0.1,3.5,0.3,5.3
			c-0.8,0-1.8,0.1-2.6,0.1c-2,10.5-4.2,21.2-6.3,31.7c-1.8,0.1-3.6,0.1-5.4,0.3c-3.2-10.3-6.3-20.6-9.3-30.9c-0.8,0-1.8,0-2.6,0.1
			C538.2,718.6,538.1,716.8,538.1,715z"/>
		<path class="st3" d="M571.8,750c-0.8-12.1-1.6-24.3-2.3-36.4c1.8-0.1,3.5-0.3,5.3-0.4c0.8,12.1,1.6,24.3,2.6,36.4
			C575.3,749.7,573.5,749.8,571.8,750z"/>
		<path class="st3" d="M586.9,748.9c-1.5-1.3-3.1-2.6-4.6-3.8c-0.7-9.3-1.3-18.7-2-28.1c1.3-1.5,2.6-3,3.9-4.5
			c4.2-0.3,8.4-0.7,12.5-1.1c1.5,1.2,3.1,2.6,4.6,3.8c0.1,2,0.4,4.2,0.5,6.2c-1.8,0.1-3.5,0.3-5.3,0.4c-0.1-1.8-0.3-3.5-0.4-5.1
			c-3.5,0.3-7,0.5-10.5,0.9c0.7,8.6,1.3,17.3,2,26c3.6-0.3,7.1-0.5,10.8-0.9c-0.1-1.8-0.3-3.5-0.4-5.1c1.8-0.1,3.5-0.3,5.4-0.5
			c0.1,2,0.4,4.2,0.5,6.2c-1.3,1.5-2.6,3.1-3.9,4.6C595.5,748.2,591.2,748.5,586.9,748.9z"/>
		<path class="st3" d="M617.6,746.1c-1.1-10.4-2.2-20.8-3.2-31.2c-2.6,0.3-5.3,0.5-7.8,0.8c-0.1-1.8-0.4-3.5-0.5-5.1
			c7-0.7,13.9-1.3,20.9-2.3c0.1,1.8,0.4,3.5,0.5,5.1c-2.6,0.3-5.3,0.7-7.8,0.9c1.1,10.4,2.3,20.8,3.4,31.2
			C621.2,745.7,619.4,745.9,617.6,746.1z"/>
		<path class="st3" d="M640.7,743.4c-1.6-1.2-3.2-2.4-4.9-3.6c-1.1-9.3-2.3-18.6-3.4-27.9c1.2-1.6,2.4-3.1,3.6-4.7
			c4.2-0.5,8.4-1.1,12.5-1.6c1.6,1.2,3.1,2.4,4.7,3.5c1.3,9.3,2.6,18.6,3.9,27.9c-1.2,1.6-2.4,3.1-3.8,4.7
			C649.3,742.3,645,742.8,640.7,743.4z M641.2,738.1c3.5-0.4,7.1-0.9,10.7-1.3c-1.2-8.6-2.3-17.3-3.5-25.9c-3.5,0.4-7,0.9-10.5,1.3
			C639,720.8,640,729.5,641.2,738.1z"/>
		<path class="st3" d="M663.4,740.4c-1.8-12-3.5-24-5.3-36.1c5.5-0.8,11.1-1.6,16.6-2.6c1.6,1.1,3.2,2.3,4.9,3.4
			c0.7,4,1.3,8.2,2,12.4c-0.4,0.7-0.9,1.2-1.3,1.8c0.5,0.4,1.2,0.8,1.9,1.3c0.9,5.5,1.8,10.9,2.7,16.5c-1.8,0.3-3.5,0.5-5.4,0.8
			c-0.8-5.1-1.6-10.3-2.4-15.5c-3.5,0.5-7,1.1-10.5,1.6c0.8,5.1,1.5,10.4,2.3,15.5C666.9,739.9,665.1,740.1,663.4,740.4z M665.7,719
			c3.5-0.5,7-1.1,10.5-1.6c-0.5-3.4-1.1-6.9-1.6-10.3c-3.5,0.5-6.9,1.1-10.4,1.6C664.6,712.1,665.1,715.5,665.7,719z"/>
		<path class="st3" d="M684,700.2c1.8-0.3,3.5-0.5,5.1-0.9c3.4,4,6.7,8.1,10.3,12.1c1.8-5,3.5-10,5.3-14.8c1.8-0.3,3.5-0.7,5.1-0.9
			c-2.3,6.6-4.6,13.2-7,20c1.1,5.9,2.2,12,3.2,17.9c-1.8,0.3-3.5,0.7-5.4,0.9c-1.1-5.9-2.2-12-3.2-17.9
			C693,711,688.5,705.6,684,700.2z"/>
	</g>
</g>
<path class="st2" d="M596.8,676.1"/>
<path class="st2" d="M74,735.5l-29.5-12.1V411.2l31.7-17.8C226,449.6,472,445.6,472,445.6l-4.5-5.1c-276.5-4.5-393.8-54-393.8-54
	L37,408.3v319.4l36.1,14.6c143.1-50.6,257.2-58.7,257.2-58.7s343-44.6,597.9,58.7l34.9-14.6V408.2l-36.9-21.8
	c0,0-117.3,49.5-393.8,54l-4.5,5.1c0,0,246,4.2,395.7-52.2l31.8,17.8v312.1l-27.1,12.5c0,0-149.6-72.4-429-69
	C220,670,74,735.5,74,735.5z"/>
<path class="st2" d="M601,670.3L601,670.3"/>
<g>
	<path class="st1" d="M654.9,445.3c-0.8,0-1.4-0.1-2.1-0.4c-0.1,0-0.2,0-0.5,0H651h-0.1c-0.5-0.1-1.9-0.2-2.6-1.6
		c-0.4-0.8-0.5-1.7-0.2-2.7l0,0c-0.1-0.5-0.1-0.9-0.1-1.1l0,0c-0.1,0.1-0.2,0.3-0.4,0.4l-0.1,0.1c-0.7,0.7-1.7,1.7-3.2,1.7
		c-0.7,0-1.6-0.4-2.2-1c-2.4-2.5-0.8-4.9,0.2-6.3l0.1-0.2c0.1-0.3,0.3-0.5,0.5-0.7l0.1-0.1c0.6-1,1.3-2.1,2.9-2.7
		c0.5-1.2,1.1-2.9,2.1-4.5V426l0.1-0.2c0.3-0.6,0.8-1.8,2-2.4h0.1h0.1c0,0,0.1,0,0.1-0.1v-0.8c0-0.2,0-0.4,0-0.5
		c-0.2-0.3-0.3-0.7-0.3-1.1c0-0.7,0.1-1.3,0.4-1.8c0-0.1,0.1-0.3,0.1-0.4v-0.1v-0.1c0-0.2-0.1-0.5-0.2-0.7c-0.1-0.3-0.1-0.5-0.2-0.8
		c0-0.1-0.1-0.3-0.1-0.3l-0.1-0.1l-0.1-0.2c-0.3-0.8-0.4-1.4-0.6-2.3l-0.4-1.1c-0.6-1.4-1.3-3.2-0.8-4.9c0.5-1.5,1.1-3.1,1.8-4.9
		c0.1-0.4,0.3-0.8,0.5-1.2v-0.1c0-0.1,0-0.3,0-0.4v-0.8l0.7-0.7c0.7-0.6,1.2-1.3,1.8-2.1c0.2-0.2,0.3-0.4,0.5-0.7
		c0.2-0.2,0.4-0.5,0.6-0.8c0.2-0.3,0.4-0.6,0.6-0.8l0.3-0.3c0.7-0.8,1.5-1.7,2.4-2.2c1.3-0.8,2.8-1,4.1-1.2h0.2h0.3
		c0-0.2,0-0.5,0-0.7v-1.6l-0.1-0.4l-0.3-1.9h0.5c0.1-0.6,0.6-1.2,1.2-1.4l0.2-1h0.2l0.1-0.4h0.5l0.2-0.7h0.4l0.1-0.4h3.2l0.4,0.4
		h0.8l0.3,0.4h1.3l0.5,0.9h0.1l0.2,0.8l0,0h0.8l0.7,0.9l0.1,0.2v0.1c0.1,0.2,0.3,0.6,0.1,1.1l0.9,0.9v0.8c-0.1,1.4-0.6,2.5-1.6,3.2
		c-0.1,0.3-0.2,0.5-0.4,0.7l-0.7,1.5c0.4,0.3,0.8,0.6,1,1.1v0.1v0.1l0,0c0,0,0.1,0.1,0.2,0.2c0.1,0.1,0.2,0.2,0.3,0.2
		c0.3,0.3,0.4,0.5,0.6,0.8c0.1,0.1,0.2,0.3,0.3,0.4c1.5,2.3,1.3,4.3,1,6.5l-0.1,0.7c0,0.3-0.1,0.5-0.1,0.8c-0.1,0.7-0.2,1.4,0,1.8
		v0.1c0.1,0.6-0.1,1.2-0.5,1.7c-0.1,0.1-0.2,0.3-0.4,0.4c-0.2,0.9-0.7,1.7-1.5,2.3c-0.2,0.2-0.5,0.3-0.7,0.4
		c0.1,0.4,0.2,0.7,0.3,1.1c0.1,0.1,0.1,0.3,0.2,0.4c0.7,1.3,0.9,2.2,0.7,2.9v0.1c-0.3,0.7-0.8,1.2-1.4,1.5c0.1,0.3,0.2,0.6,0.3,0.9
		l0.1,0.4c0.3,1,0,1.6-0.2,2l-0.1,0.1l-0.1,0.1c-0.4,0.4-0.9,0.7-1.5,1c-0.9,2.5-1.8,4.5-2.9,6.1c-0.1,0.5-0.2,0.9-0.3,1.2
		c2.8,3.6,4.6,5.7,5.8,6.9c0.1-0.2,0.2-0.5,0.4-0.7c0.5-0.8,1.3-1.4,2.5-1.7h0.1h0.6c1.9,0,3.5,1.3,4,3.2c0.4,2.1-1,4.3-3.1,4.8H677
		h-0.2c-0.6,0.7-1.5,1.1-2.5,1.1c-2.7,0-8.8-7.4-10.7-10c-0.5,0.4-1.1,0.8-1.6,1.1l-0.6,0.4c-0.4,0.2-0.7,0.4-1,0.6s-0.6,0.4-1,0.6
		c-0.3,0.3-0.7,0.6-1,0.9l-0.2,0.2c-0.2,0.1-0.4,0.3-0.5,0.4c0.3,0.1,0.6,0.2,0.8,0.4c1,0.6,1.4,1.5,1.3,2.6
		c-0.1,1.4-1.5,2.4-2.6,2.9C656.7,444.9,656.1,445.3,654.9,445.3z M650.5,436.3c0.4-0.5,0.8-1.1,1.3-1.6c0.1-0.1,0.1-0.1,0.2-0.2
		c-0.4,0.3-0.7,0.7-1.1,0.9C650.8,435.7,650.6,436,650.5,436.3L650.5,436.3z M658.2,427.2c-0.4,0.7-0.9,1.3-1.5,2
		c0.5-0.5,1.1-1.1,1.8-1.5C658.4,427.6,658.3,427.4,658.2,427.2z"/>
	<path class="st0" d="M667.7,384.4l0.3,0.3l0.1,0.1h0.4h0.3l0.3,0.4h0.3h0.4h0.5l0.3,0.5l0.1,0.4h0.1l0.1,0.5v0.1h0.3l0.1,0.1
		l0.1,0.1h0.3h0.4l0.3,0.4c0.1,0.3,0.3,0.5,0.1,0.8c0,0.3-0.1,0.4-0.1,0.7l0.1,0.1h0.3l0.3,0.3l0.3,0.3v0.4c-0.1,1.1-0.5,2-1.5,2.7
		c0,0.3-0.1,0.5-0.3,0.7c-0.4,0.8-0.8,1.6-1.2,2.4c0.1,0.1,0.4,0.3,0.5,0.4c0.3,0.1,0.7,0.4,0.9,0.8c0.1,0.3,0.4,0.5,0.7,0.8
		s0.5,0.7,0.8,1.1c1.3,2,1.1,3.8,0.8,5.7l-0.1,0.7c-0.1,1.1-0.4,2.2-0.1,3.1c0.1,0.5-0.3,1.2-0.8,1.2c0,0.9-0.4,1.6-1.2,2.2
		c-0.4,0.3-0.8,0.4-1.2,0.5c0.1,0.8,0.3,1.6,0.5,2.2c0,0,0.1,0.1,0.1,0.3c0.7,1.3,0.8,2,0.7,2.4c-0.3,0.8-1.1,1.1-1.6,1.1h-0.1
		c0.1,0.7,0.4,1.5,0.7,2.4c0.1,0.4,0.1,0.8-0.1,1.1c-0.4,0.4-0.9,0.7-1.6,0.9c-0.8,2.4-1.8,4.7-3.1,6.5c-0.1,0.7-0.3,1.2-0.5,1.8
		c4.5,5.9,6.6,8,7.6,8.8c-0.1-0.8,0-1.5,0.5-2.2c0.4-0.7,1.2-1.1,1.9-1.3c0.1,0,0.4,0,0.5,0c1.5,0,2.7,1.1,3,2.4
		c0.3,1.6-0.8,3.2-2.4,3.6c-0.1,0-0.4,0-0.5,0c0,0,0,0-0.1,0c-0.4,0.7-1.1,1.1-2,1.1c-2.2,0-8.6-7.8-10.5-10.3l-0.3,0.1
		c-0.8,0.7-1.8,1.3-2.7,1.9c-0.7,0.4-1.3,0.9-2,1.3c-0.4,0.4-0.8,0.7-1.3,1.1s-1.2,0.8-1.8,1.2c0.1,0.3,0.1,0.4,0.1,0.8
		c0.1,0,0.3,0,0.3,0c0.7,0,1.3,0.1,1.8,0.4c0.7,0.4,0.9,0.9,0.8,1.6c-0.1,1.1-1.5,2-2.4,2.2c-0.1,0.6-0.7,0.7-1.3,0.7
		c-0.7,0-1.2-0.1-1.8-0.3c-0.3-0.1-0.5-0.1-0.8-0.1h-0.5c-0.3,0-0.4,0-0.7,0c-0.9-0.1-1.5-0.4-1.8-1.1c-0.4-0.7-0.3-1.5,0-2.2
		c0,0,0-0.1-0.1-0.3c-0.1-0.4-0.1-0.7-0.1-0.9c0-0.5,0-0.9,0.1-1.3s0.4-0.8,1.2-0.8c0.1,0,0.3,0,0.4,0s0.1,0,0.3,0
		c0.4-0.7,0.9-1.3,1.5-1.9c0.3-0.3,0.4-0.5,0.5-0.7c0.8-1.1,1.8-2.3,3-3.4c0.3-0.3,0.5-0.5,0.8-0.8c0.8-0.8,1.8-1.8,3-2.3
		c0-0.1,0-0.1,0-0.3c-0.7-0.9-1.2-1.8-1.9-2.7c-0.4,1.3-1.1,2.4-2.2,3.6c-0.7,0.7-1.2,1.3-1.8,2c-1.2,1.5-2.4,3-3.9,4
		c-0.5,1.3-1.5,2.6-2.7,3.8c-0.1,0.1-0.1,0.3-0.3,0.4c-0.7,0.7-1.5,1.6-2.6,1.6c-0.5,0-1.1-0.3-1.5-0.7c-1.9-2-0.5-3.8,0.5-5.3
		c0.1-0.3,0.4-0.5,0.5-0.7c0.7-1.1,1.3-2,2.8-2.4c0.5-1.3,1.2-3.1,2.2-4.9c0.1-0.1,0.1-0.3,0.1-0.4c0.3-0.7,0.7-1.5,1.5-1.9
		c0.3-0.1,0.5-0.3,0.8-0.3c0-0.1,0-0.3,0-0.4c0-0.4,0-0.7,0-1.1c0-0.3,0-0.7,0.1-0.9c-0.3-0.1-0.4-0.4-0.4-0.7
		c0-0.5,0.1-1.1,0.3-1.5c0.1-0.4,0.3-0.7,0.1-1.1c-0.1-0.5-0.3-1.1-0.4-1.6c-0.1-0.3-0.1-0.5-0.3-0.7c-0.3-0.7-0.4-1.3-0.5-2.2
		l-0.5-1.2c-0.5-1.1-1.2-2.8-0.8-4.2c0.5-1.6,1.1-3.2,1.8-4.9c0.1-0.4,0.4-0.9,0.7-1.5c-0.1-0.1-0.1-0.4-0.1-0.5v-0.4l0.4-0.4
		c0.9-0.8,1.6-1.8,2.4-2.8c0.4-0.5,0.8-1.1,1.2-1.6c0.7-0.8,1.5-1.8,2.4-2.3c1.2-0.7,2.6-0.9,3.9-1.1c0.1,0,0.4,0,0.8,0
		c0.1,0,0.4,0,0.5,0c0,0,0-0.1,0.1-0.1c0-0.1-0.1-0.4-0.1-0.5c-0.1-0.4-0.1-0.7-0.1-1.1v-0.1c0-0.3,0-0.7,0-0.9v-0.4
		c0-0.1,0-0.1,0-0.3l-0.1-0.5l-0.1-0.7h0.1l0.1-0.1v-0.1c0-0.1,0.1-0.3,0.1-0.4v-0.1c0-0.4,0.4-0.8,0.8-0.9c0.1-0.1,0.1-0.1,0.3-0.3
		l0.1-0.5h0.1c0,0,0,0,0-0.1l0.1-0.3h0.1l0.1-0.1c0.1-0.1,0.3-0.1,0.4-0.3l0.1-0.3h0.5l0.1-0.4h0.7h0.1h0.1h0.1h0.1h0.5L667.7,384.4
		 M660.8,424c0-0.1,0.1-0.3,0.1-0.4c-0.4-0.1-0.7-0.5-0.7-0.9s0-0.8-0.1-1.2c-0.1,0.3-0.4,0.5-0.5,0.7
		C659.9,422.8,660.3,423.3,660.8,424 M668.5,382.4h-0.8h-0.4h-0.5h-0.1h-0.1h-0.1h-0.1h-0.7h-1.6l-0.1,0.4h-0.4l-0.2,0.7H663
		l-0.1,0.4h-0.3l-0.3,1.3c-0.4,0.3-0.7,0.7-1,1.1h-0.9l0.3,2.3l0.1,0.7v0.1v0.1l0.1,0.3v0.1v0.4v0.8c-1.3,0.2-2.7,0.5-4.1,1.3
		c-1.1,0.6-1.9,1.6-2.6,2.4l-0.2,0.3l0,0l0,0c-0.2,0.3-0.4,0.6-0.7,0.9c-0.2,0.2-0.4,0.5-0.5,0.7c-0.2,0.2-0.4,0.5-0.5,0.7
		c-0.5,0.7-1.1,1.4-1.6,1.9l0,0l0,0l-0.4,0.4l-0.6,0.6v0.8v0.4c0,0.1,0,0.1,0,0.2c-0.2,0.4-0.4,0.7-0.5,1.1c-0.8,1.9-1.3,3.4-1.8,5
		c-0.6,2,0.2,4,0.9,5.6l0.4,0.9c0.1,0.8,0.2,1.6,0.6,2.5l0.2,0.4l0,0l0,0c0.1,0.3,0.1,0.5,0.2,0.8c0.1,0.2,0.1,0.4,0.2,0.6
		c0,0,0,0,0,0.1c-0.4,0.9-0.4,1.8-0.4,2.2c0,0.5,0.1,0.9,0.3,1.3c0,0.1,0,0.2,0,0.3v0.2c-1.3,0.8-1.9,2.1-2.1,2.7l-0.2,0.4v0.1
		c-0.8,1.5-1.4,2.9-1.8,4c-1.6,0.7-2.3,1.9-2.9,2.9l0,0c-0.1,0.2-0.4,0.4-0.6,0.8l-0.1,0.1c-1,1.5-3,4.5-0.1,7.5l0,0l0,0
		c0.8,0.8,1.9,1.3,2.9,1.3s1.9-0.4,2.5-0.9c0,0.7,0.2,1.3,0.5,1.9c0.6,1.3,1.7,2,3.4,2.2h0.1h0.1h0.7h0.5h0.1h0.1
		c0.8,0.3,1.5,0.4,2.4,0.4c1.4,0,2.2-0.5,2.7-1.1c1.4-0.6,2.8-1.9,3-3.6c0.2-1.3-0.3-2.4-1.3-3.2c0.2-0.2,0.4-0.3,0.6-0.5
		c0.3-0.2,0.6-0.4,0.9-0.6c0.3-0.2,0.6-0.4,0.9-0.6h0.1h0.1c0.2-0.1,0.4-0.3,0.6-0.4c0.3-0.2,0.6-0.4,0.9-0.6
		c1.1,1.3,2.6,3.1,4.1,4.8c4,4.3,5.6,4.8,6.8,4.8s2.2-0.4,3-1.1h0.1c2.6-0.7,4.4-3.3,3.9-5.9l0,0l0,0c-0.5-2.3-2.6-4-4.9-4h-0.5H676
		l-0.3,0.1c-1.2,0.3-2.1,0.9-2.7,1.7c-1.1-1.2-2.5-2.9-4.5-5.5c0.1-0.2,0.1-0.4,0.2-0.6c1-1.5,2-3.4,2.8-5.8c0.5-0.3,1-0.6,1.4-1
		l0.1-0.1l0.1-0.2c0.3-0.5,0.7-1.4,0.4-2.7v-0.1v-0.1l-0.2-0.5v-0.1c0.5-0.4,0.9-0.9,1.2-1.6v-0.1v-0.1c0.2-1,0-2.1-0.7-3.5
		c0-0.2-0.1-0.3-0.2-0.5c0-0.1,0-0.1-0.1-0.2l0.1-0.1c0.9-0.7,1.6-1.6,1.8-2.6c0.1-0.1,0.2-0.2,0.3-0.3c0.6-0.7,0.8-1.7,0.7-2.6
		v-0.1v-0.1c-0.1-0.2,0-0.9,0.1-1.3c0-0.3,0.1-0.6,0.1-0.9l0.1-0.7c0.4-2.3,0.5-4.5-1.1-7.1v-0.1v-0.1c-0.1-0.1-0.2-0.2-0.2-0.3
		c-0.2-0.3-0.4-0.6-0.8-1c-0.1-0.1-0.2-0.2-0.3-0.3c0,0,0,0-0.1,0c-0.2-0.3-0.4-0.6-0.6-0.9l0.3-0.7c0.2-0.2,0.3-0.4,0.4-0.7
		c1-0.9,1.6-2.1,1.7-3.6v-0.1v-0.1v-0.4v-0.8l-0.6-0.6l-0.2-0.2c0-0.4-0.1-0.8-0.3-1.2v-0.1l-0.1-0.3l-0.2-0.2l-0.3-0.4l-0.6-0.8
		h-0.5l-0.2-0.8h-1l-0.5-0.9h-1.1h-0.2l-0.3-0.4H669L668.5,382.4L668.5,382.4z"/>
</g>
<g>
	<path class="st1" d="M577.6,444.7c-0.7,0-2-0.7-3.8-2c-0.8-0.6-1.4-1.7-1.1-3c0.1-0.5,0.4-0.8,0.5-1c0,0,0-0.1,0.1-0.1
		c0.1-0.3,0.3-0.5,0.4-0.7c0-0.1,0.1-0.1,0.1-0.2c0.3-0.7,0.9-0.9,1.2-1l0.1-0.1c0.1-0.1,0.2-0.3,0.3-0.5s0.2-0.4,0.3-0.5
		c0-0.1,0-0.2,0-0.3l-0.1-0.2c0,0,0,0-0.1-0.1s-0.3-0.4-0.4-0.7c0,0,0-0.1-0.1-0.1c-0.1-0.1-0.1-0.2-0.2-0.4c-0.5-0.6-1.6-1.9-2.5-3
		c-1.1-1.2-1.6-2.7-2-3.9l-0.1-0.4c-0.1-0.3-0.2-0.7-0.4-1c-0.1-0.3-0.2-0.6-0.3-0.9c-0.6-1.3-0.8-2.3-0.8-3.1
		c-0.2,0.1-0.5,0.2-0.8,0.2c-0.3,0.5-0.6,1-0.8,1.3c-0.5,0.7-1.3,1.1-2.1,1.1h0l0,0c-0.2,0.1-0.5,0.3-1,0.3c-0.7,0-1.3-0.3-1.7-0.8
		c-0.4-0.4-0.6-1-0.6-1.7c-0.1-0.3-0.1-0.5-0.1-0.9c0-0.3,0-0.7,0.4-1.3c0-0.5,0.2-0.9,0.4-1.4l0.2-0.4c0-0.2,0.2-0.4,0.3-0.5
		s0.1-0.2,0.1-0.2c0.3-1.3,0.3-1.6,0.3-1.7c0-0.8,0.4-1.4,0.9-2.3l0.1-0.2c0.1-0.2,0.2-0.3,0.2-0.4c0-0.4,0-0.7,0.1-1
		c0-0.1,0-0.1,0-0.2v-0.1c0-0.7-0.4-7.5-0.3-9.8c0.1-3.2,2-6.3,2-6.4V395c0.1-0.1,0.2-0.3,0.4-0.5c0.5-0.7,1.1-2,1.6-3
		c0.5-1.7,1.9-3.3,2.4-3.9c0.4-0.8,1.2-2,1.5-2.6c0.2-0.5,0.6-1.3,1.4-2c0.3-0.3,0.5-0.4,0.7-0.6c0.1-0.1,0.4-0.3,0.4-0.3l0.2-0.1
		c0.1,0,0.3-0.2,0.4-0.3c0.6-0.6,2.5-1.8,3.7-1.8h0.3c0.3,0,0.6,0,0.9,0.1l0,0l0.1-0.1c0.1-0.6,0.5-1.4,1.3-2.6l0.1-0.3l0.1-0.1
		c0.2-0.3,0.3-0.6,0.5-0.8c0.5-0.9,1.1-1.8,1.8-2.3c1.2-0.9,2.8-1,3.3-1h0.6h0.1c0.8,0.1,2.3,0.3,3.7,1.8c1.3,1.5,1.6,3.5,1.4,4.4
		c-0.1,0.5-0.4,1.1-0.7,1.8c0,0.2,0,0.4,0,0.6c0,0.1,0,0.2,0,0.3c0,0.1,0.1,0.1,0.1,0.2c0.1,0.1,0.1,0.2,0.2,0.3
		c0.1,0,0.1,0.1,0.3,0.1h0.1l0.1,0.1c1.6,0.8,2.1,1.1,2.4,1.4l0.1,0.1l0.1,0.1c1,1,1.4,3.7,1.4,4.2c0,0.8-0.4,1.6-0.8,2.4v0.1
		c0,0.2,0.1,0.3,0.1,0.5v0.1c0,0,0,0,0.1,0.1s0.2,0.2,0.3,0.4l0,0c0.1,0.1,0.3,0.2,0.4,0.3c0.1,0.1,0.3,0.2,0.4,0.3
		c0.2,0.1,0.4,0.3,0.5,0.5c0.4,0.4,0.5,0.8,0.5,1.2c0.5,0.6,1.6,1.7,3.8,3.5c0.9-0.3,1.8-0.5,2.5-0.5c1.4,0,2.7,0.4,3.8,1.1
		c3.4,2,4.5,6.5,2.5,9.9c-1.3,2.2-3.7,3.6-6.3,3.6c-1.4,0-2.7-0.4-3.8-1.1c-2.7-1.5-4-4.6-3.4-7.7c-0.4-0.2-0.7-0.4-1-0.6
		s-0.5-0.3-0.7-0.4c-0.7-0.4-2.5-1.6-3.4-2.3c-0.5-0.1-0.9-0.4-1.5-0.9l-0.6-0.5l-0.2,0.5v0.1c-0.1,0.2-0.3,0.6-0.4,0.9
		c-0.1,0.3-0.2,0.5-0.3,0.7l-0.1,0.1l0,0c0,0.1-0.1,0.2-0.1,0.4c0,0.1,0,0.1-0.1,0.2c0.3,0.6,0.7,1.4,0.7,2c0.1,0.6,0,1.7-0.1,3.3
		c0,0.2,0,0.4,0,0.4v0.5v0.3c0,0.6,0,1.3-0.4,2.1l0,0c0,0.2-0.1,0.5-0.2,0.7v0.1c0,0.2-0.1,0.4-0.3,0.7c-0.3,0.9-0.9,2-1.6,2.7
		c-0.1,0.2-0.3,0.4-0.5,0.8c-0.2,0.3-0.4,0.6-0.5,0.9s-0.3,0.5-0.4,0.6l-0.1,0.1c-0.3,0.5-0.6,0.8-0.8,0.9l0,0l0,0l-0.1,0.1
		l-0.2,0.4l0,0c0,0,0,0,0,0.1c0,0.6-0.2,1.2-0.5,1.7c0.6,0.6,1.1,1.3,1.7,2.1c0.4,0.5,0.5,1.1,0.5,1.5c0.1,0.3,0.3,1,0.5,1.4
		c0.3,0.2,0.4,0.5,0.6,0.7c0.3,0.1,0.6,0.3,0.9,0.4c0.3,0.1,0.5,0.2,0.6,0.3l0.1,0.1l0.1,0.1c1,0.9,1.5,2.4,1.5,3.4
		c0,0.3,0.2,0.8,0.3,1.2c0.1,0.5,0.2,0.9,0.2,1.1v0.1c0.3,1.3,0.8,3.2,0.8,4.1c0,1.5-0.8,3.5-1.4,4.3c-0.7,1.3-2.1,1.7-2.6,1.7h-0.4
		c-0.7,0-2-0.3-2.8-1.3c-0.7-0.8-1.1-2.3-1.4-3.3c0,0.3,0,0.5,0,0.6v0.1c-0.1,1.2-1.4,2.5-1.8,2.9c-0.4,0.4-0.7,0.6-1.2,0.7h-0.1
		c0,0.1-0.1,0.3-0.2,0.4c-0.1,0.2-0.2,0.4-0.2,0.5c0,0,0,0,0,0.1v0.3C580.4,444.5,578.9,444.7,577.6,444.7z M583.6,436.3
		c0.1,0.3,0.3,0.6,0.3,0.9V437v-0.1c0-0.1-0.1-0.3-0.1-0.5c-0.1-0.4-0.3-0.9-0.3-1.4c-0.3-0.8-0.4-1.4-0.5-1.8v-0.1V433
		c0-0.1-0.2-0.5-0.5-0.9l-0.1-0.1l-0.1-0.2c0-0.1-0.1-0.1-0.1-0.2c-0.1-0.1-0.2-0.2-0.2-0.3v-0.1v-0.1c-0.1-0.4-0.1-0.7-0.1-1
		c0,0,0-0.1-0.1-0.1c0-0.1-0.1-0.2-0.1-0.3l-0.1-0.1c-0.5-0.2-0.9-0.5-1.4-1c-0.1-0.1-0.3-0.2-0.4-0.4v0.5c0,0.2,0,0.4,0,0.5
		l0.1,0.1v0.1c0,0.1,0.2,0.5,0.3,0.7c0.1,0.3,0.3,0.5,0.4,0.8c0.5,0.4,0.9,1.1,1,1.6c0,0.1,0.1,0.1,0.1,0.2l0.1,0.1
		c0.1,0.1,0.2,0.2,0.3,0.2c0.6,0.5,1.4,1.8,1.5,2.5C583.6,435.7,583.6,436,583.6,436.3z"/>
	<path class="st0" d="M588.1,374.6c0.8,0.1,2,0.3,3.1,1.5c1.1,1.3,1.3,3,1.2,3.6c-0.1,0.4-0.5,1.2-0.8,1.8c0.1,0.3,0.1,0.5,0.1,0.7
		c0,0.1,0,0.3-0.1,0.7c0.1,0.1,0.3,0.1,0.3,0.3c0.1,0.1,0.3,0.3,0.3,0.4c0.1,0.1,0.4,0.3,0.8,0.4c1.5,0.8,2,1.1,2.3,1.3
		c0.7,0.7,1.1,3,1.1,3.5c0,0.7-0.4,1.5-0.8,2.2c0,0,0,0,0,0.1c0.1,0.3,0.1,0.7,0.3,1.1c0.1,0.3,0.5,0.5,0.5,0.7
		c0.1,0.1,0.4,0.3,0.5,0.4c0.4,0.4,0.7,0.5,0.8,0.7c0.3,0.3,0.3,0.5,0.3,0.9c0.9,1.2,3,3,4.6,4.3c0.8-0.4,1.8-0.7,2.7-0.7
		c1.1,0,2.3,0.3,3.2,0.9c3,1.8,3.9,5.7,2.2,8.6c-1.1,1.9-3.2,3.1-5.4,3.1c-1.1,0-2.3-0.3-3.2-0.9c-2.6-1.5-3.6-4.5-2.8-7.3
		c-0.9-0.7-1.9-1.2-2.3-1.5c-0.7-0.4-2.8-1.8-3.6-2.4c-0.5,0-0.5-0.1-1.8-1.2c-0.1-0.3-0.4-0.4-0.5-0.5s-0.3-0.3-0.5-0.5
		c-0.1,0.4-0.3,0.8-0.4,1.1l-0.3,0.7c-0.3,0.5-0.5,1.2-0.7,1.6c-0.1,0.1-0.3,0.8-0.5,1.3c0.4,0.7,0.8,1.6,0.8,2
		c0.1,0.7-0.1,3.4-0.1,3.6c0,0.1,0,0.4,0,0.5c0,0.7,0.1,1.3-0.3,1.9c-0.1,0.1-0.1,0.5-0.3,0.9c-0.1,0.3-0.1,0.5-0.3,0.8
		c-0.3,0.9-0.9,2-1.5,2.6c-0.1,0.3-0.8,1.2-1.1,1.8c-0.1,0.3-0.3,0.5-0.4,0.7c-0.3,0.5-0.7,0.7-0.8,0.9c-0.1,0-0.1,0.1-0.1,0.1
		c-0.1,0.1-0.3,0.7-0.3,0.9c0,0.8-0.5,1.5-0.9,1.8c0.8,0.7,1.5,1.5,2.2,2.6c0.3,0.4,0.3,0.8,0.3,1.1c0.1,0.4,0.5,1.5,0.8,2
		c0.3,0.1,0.4,0.4,0.5,0.7c0.5,0.3,1.5,0.7,1.9,0.9c0.8,0.7,1.2,2,1.2,2.7c0.1,0.8,0.5,2,0.5,2.4c0.1,0.4,0.8,3,0.8,4
		c0,1.2-0.7,3-1.2,3.8c-0.5,0.9-1.5,1.2-1.8,1.2c-0.1,0-0.3,0-0.4,0c-0.5,0-1.5-0.3-2-0.9c-0.7-0.8-1.2-2.8-1.3-3.6
		c0-0.4-0.4-1.3-0.5-2.2c-0.3-0.8-0.4-1.3-0.5-1.8c0-0.4-0.4-1.1-0.7-1.5c-0.1-0.3-0.3-0.5-0.4-0.7c-0.1-0.4-0.1-0.7,0-0.9
		c0,0,0,0-0.1-0.1c-0.1-0.3-0.3-0.5-0.3-0.7c-0.1-0.1-0.4-0.3-0.5-0.4c-0.4-0.1-0.8-0.4-1.2-0.8s-1.2-1.1-1.5-1.2s-0.8-0.4-1.3-0.7
		c0.4,0.8,0.5,1.6,0.7,2c0,0.3,0,0.4,0,0.7c0,0.4,0,0.7,0.1,0.9c0.1,0.5,0.7,1.3,0.9,1.9c0.5,0.3,0.8,0.9,0.8,1.2
		c0,0,0.1,0.4,0.4,0.7c0.1,0.1,0.4,0.3,0.5,0.4c0.4,0.3,1.1,1.5,1.2,2c0.1,0.3,0.1,0.7,0.1,0.9c0.3,0.3,0.5,1.3,0.5,1.8
		c-0.1,0.9-1.5,2.3-1.5,2.3c-0.3,0.3-0.5,0.4-0.9,0.5c-0.1,0.1-0.4,0.1-0.5,0.3c-0.1,0.1-0.1,0.4-0.3,0.7c-0.1,0.4-0.4,0.8-0.4,1.1
		c0.4,0.1-1.1,0.4-1.9,0.4c-0.7,0-3.2-1.8-3.2-1.8c-0.5-0.4-0.9-1.1-0.7-1.9c0.1-0.4,0.3-0.5,0.5-0.8c0.1-0.3,0.4-0.7,0.5-0.9
		c0.1-0.3,0.4-0.4,0.7-0.5s0.5-0.3,0.5-0.4c0.1-0.1,0.7-1.2,0.8-1.3l0.1-0.1c-0.1-0.3-0.1-0.7-0.1-0.9c0,0,0,0-0.1-0.1
		c-0.1-0.3-0.4-0.5-0.4-0.7c-0.1-0.3-0.3-0.5-0.3-0.7c-0.4-0.5-1.6-2-2.7-3.2c-1.1-1.2-1.5-2.7-1.9-3.9c-0.3-0.7-0.4-1.3-0.7-2
		c-0.8-1.6-0.7-2.7-0.7-3.5c0-0.1,0-0.4,0-0.5c0-0.3-0.1-0.8-0.4-1.2c-0.1,0.1-0.1,0.4-0.3,0.7c-0.1,0.3-0.1,0.4-0.3,0.5
		c-0.3,0.4-0.5,0.5-0.9,0.5c-0.1,0-0.3,0-0.4-0.1c-0.4,0.7-0.9,1.5-1.1,1.8c-0.3,0.4-0.8,0.7-1.3,0.7c-0.1,0-0.3,0-0.4,0
		c-0.3,0.1-0.5,0.3-0.8,0.3c-0.4,0-0.7-0.1-0.9-0.4c-0.3-0.3-0.4-0.7-0.4-1.2c-0.1-0.3-0.1-0.4-0.1-0.7c0-0.1,0-0.4,0.4-1.1
		c-0.1-0.4,0.1-0.7,0.5-1.6c0.1-0.3,0.3-0.5,0.4-0.8c0.1-0.4,0.4-1.6,0.4-2c0-0.5,0.4-1.1,0.9-1.9c0.3-0.4,0.4-0.7,0.4-0.8
		c-0.1-0.5,0.1-0.9,0.1-1.2v-0.1c-0.1-1.8-0.4-7.7-0.3-9.8c0.1-3,1.9-5.9,1.9-5.9c0.1-0.1,0.1-0.3,0.3-0.4c0.5-0.7,1.3-2.2,1.8-3.4
		c0.4-1.6,1.9-3.2,2.3-3.6c0.4-0.8,1.3-2.3,1.6-2.7c0.1-0.3,0.5-1.1,1.2-1.8c0.3-0.3,0.5-0.4,0.9-0.7c0.3-0.1,0.7-0.4,0.8-0.5
		c0.5-0.5,2.2-1.5,3-1.5h0.3c0.3,0,0.5,0,0.8,0.1c0.1,0,0.3,0,0.4,0c0.3-0.1,0.5-0.3,0.8-0.3c0-0.1,0.1-0.4,0.1-0.5s0.1-0.7,1.2-2.4
		l0.1-0.3c0.7-1.1,1.3-2.4,2-2.8c0.9-0.7,2.2-0.8,2.7-0.8C587.7,374.6,588,374.6,588.1,374.6 M588.2,372.6L588.2,372.6h-0.6
		c-0.7,0-2.4,0.1-3.8,1.1c-0.9,0.6-1.5,1.5-2.1,2.6c-0.2,0.3-0.3,0.5-0.5,0.8l-0.1,0.2l-0.1,0.2v0.1c-0.5,0.8-0.9,1.5-1.1,2
		c-0.1,0-0.3,0-0.4,0h-0.3c-1.6,0-3.7,1.4-4.4,2l-0.1,0.1l-0.2,0.1l-0.3,0.2c-0.1,0.1-0.2,0.1-0.3,0.2c-0.2,0.2-0.5,0.4-0.8,0.7
		c-0.7,0.7-1.3,1.6-1.6,2.3c-0.4,0.6-1.1,1.7-1.5,2.5c-0.7,0.7-2,2.3-2.6,4.1c-0.4,1-1,2.1-1.4,2.7c-0.3,0.3-0.4,0.5-0.5,0.7l0,0
		c-0.1,0.1-2.1,3.4-2.2,6.9c-0.1,2.3,0.2,8.7,0.3,9.9l0,0c0,0.2-0.1,0.5-0.1,0.9l0,0v0.1l-0.1,0.2c-0.6,0.9-1.1,1.7-1.1,2.8
		c0,0.1-0.1,0.4-0.3,1.4l0,0c-0.1,0.2-0.2,0.4-0.3,0.7c-0.1,0.1-0.1,0.2-0.2,0.3c-0.2,0.5-0.4,1-0.5,1.6c-0.3,0.7-0.4,1.2-0.4,1.6
		s0,0.6,0.1,1c0.1,0.9,0.3,1.6,0.8,2.2c0.4,0.5,1.2,1.1,2.4,1.1c0.5,0,1-0.2,1.2-0.3c1.1,0,2.2-0.6,2.9-1.5l0,0l0,0l0,0
		c0.1,0.5,0.3,1,0.6,1.6c0.1,0.2,0.2,0.5,0.3,0.8s0.2,0.7,0.4,1.1l0.1,0.3c0.4,1.2,0.9,2.8,2.2,4.2c0.9,1,1.9,2.2,2.4,2.8
		c0.1,0.2,0.1,0.3,0.2,0.4l0,0c0.1,0.3,0.2,0.5,0.3,0.7c0,0,0,0.1-0.1,0.1c-0.1,0.1-0.1,0.2-0.2,0.3c-0.5,0.2-1.1,0.6-1.5,1.4
		c0,0,0,0,0,0.1c-0.1,0.2-0.3,0.4-0.4,0.7c-0.2,0.2-0.5,0.6-0.7,1.3c-0.4,1.5,0.2,3,1.4,3.9l0,0l0,0c3,2.2,4,2.2,4.4,2.2
		c2.4,0,3.8-0.7,4-2.1v-0.1c0.1-0.1,0.1-0.3,0.2-0.4l0,0c0.5-0.2,0.9-0.4,1.2-0.8c0.3-0.3,0.7-0.7,1.1-1.2c0.2,0.3,0.4,0.7,0.6,0.9
		c1,1.2,2.6,1.6,3.5,1.6h0.4c0.9,0,2.6-0.6,3.5-2.2c0.6-1,1.5-3.1,1.5-4.8c0-0.8-0.2-2.1-0.8-4.3l0,0c0-0.4-0.1-0.7-0.3-1.2
		c-0.1-0.4-0.2-0.7-0.2-1c-0.1-1.3-0.7-3-1.9-4l-0.2-0.2l-0.2-0.1c-0.2-0.1-0.4-0.2-0.7-0.3c-0.2-0.1-0.4-0.2-0.6-0.3
		c-0.1-0.2-0.3-0.4-0.5-0.6c-0.1-0.3-0.3-0.7-0.4-1c0-0.5-0.1-1.2-0.6-1.9c-0.4-0.6-0.8-1.2-1.3-1.7c0.2-0.4,0.3-0.8,0.3-1.3
		l0.1-0.1l0.3-0.3l0,0c0.2-0.2,0.4-0.5,0.6-0.8v-0.1l0,0l0,0c0.1-0.2,0.3-0.4,0.4-0.8c0.1-0.2,0.3-0.5,0.5-0.7
		c0.2-0.3,0.3-0.5,0.5-0.8c0.8-0.9,1.3-2,1.7-2.9c0.2-0.4,0.3-0.7,0.3-0.9l0,0c0.1-0.3,0.2-0.6,0.2-0.8c0.5-0.9,0.5-1.8,0.5-2.5
		c0-0.1,0-0.2,0-0.3v-0.5c0,0,0-0.2,0-0.3c0.1-1.7,0.1-2.8,0.1-3.4s-0.3-1.3-0.6-2v-0.1l0.1-0.1c0.1-0.2,0.2-0.5,0.3-0.8v-0.1
		c0.4,0.3,0.8,0.6,1.3,0.7c1,0.7,2.6,1.7,3.3,2.2c0.2,0.1,0.5,0.3,0.7,0.5c0.1,0.1,0.3,0.2,0.4,0.3c-0.4,3.3,1.1,6.4,4,8.1
		c1.2,0.8,2.7,1.2,4.3,1.2c2.9,0,5.7-1.6,7.1-4.1c2.3-3.9,1-8.9-2.9-11.3c-1.2-0.8-2.7-1.2-4.3-1.2c-0.9,0-1.7,0.2-2.3,0.4
		c-1.7-1.4-2.5-2.3-3-2.8c-0.1-0.4-0.3-0.9-0.7-1.4c-0.2-0.3-0.5-0.5-0.7-0.7c-0.1-0.1-0.2-0.1-0.3-0.2s-0.2-0.2-0.4-0.3
		c-0.1-0.1-0.2-0.2-0.2-0.3c0.4-0.8,0.7-1.6,0.7-2.5c0-0.4-0.3-3.5-1.7-4.9l-0.1-0.1l-0.2-0.1c-0.4-0.3-0.9-0.6-2.5-1.4l-0.2-0.1
		l0,0c0-0.1,0-0.2,0-0.3c0.3-0.6,0.5-1.2,0.7-1.6v-0.1v-0.1c0.2-1.1-0.1-3.4-1.6-5.2l0,0l0,0c-1.6-1.8-3.5-2-4.3-2.1L588.2,372.6
		L588.2,372.6z"/>
</g>
<g id="XMLID_23_">
	<path class="st1" d="M350.6,441c-0.8,0-1.5-0.3-1.9-0.4l0,0c-1.8,0-2.8-1.3-3.4-2c-1.2-0.1-2.4-0.8-3.4-1.3
		c-0.4-0.3-0.8-0.4-1.2-0.7c-0.5-0.3-1.2-0.5-1.9-0.8c-1.1-0.4-2.2-0.8-3.2-1.5c-0.7-0.4-1.3-0.9-2-1.8c-0.1-0.1-0.1-0.3-0.3-0.4
		c0-0.1-0.1-0.1-0.1-0.3c-1.1-0.7-1.5-1.3-1.6-1.9l-1.8-1.8c-2.2-1.9-1.5-4.7-0.7-6.1c0-1.1,0.4-2,0.8-3c0.3-0.5,0.4-1.1,0.5-1.5
		c0.1-0.8,0-1.8-0.1-2.7c-0.1-0.5-0.1-1.1-0.3-1.8c-0.1-1.2-0.1-2.4-0.1-3.8v-0.1V409c-0.9,0.9-1.8,1.8-2.2,2l-0.9,1.3
		c-0.5,1.1-1.1,1.8-1.6,2c0.1,0.4,0.3,0.8,0,1.2c-0.1,0.4-0.5,0.5-0.9,0.5c-0.1,0-0.1,0-0.3,0c0,0.1-0.1,0.1-0.1,0.3
		c-0.1,0.3-0.5,0.5-0.9,0.5s-0.7-0.1-0.8-0.3H322c-0.3,0.3-0.5,0.4-0.8,0.4h-0.3l-0.3-0.1c-1.2-0.9-0.8-3-0.8-3.5
		c0-2,2.2-2.8,3.9-3.1c0.1-0.8,0.5-1.6,0.9-2.2c0.1-0.1,0.1-0.4,0.3-0.5c0.7-1.3,1.2-2.7,1.9-4c-0.3-0.8-0.4-1.6-0.1-2.3
		c0.3-0.7,0.7-0.9,1.1-1.2c0-0.1,0.1-0.4,0.1-0.5c0.4-1.6,0.9-3.6,3-4.3c0.5-0.1,0.9-0.3,1.5-0.4c0-0.1-0.1-0.3-0.1-0.4s0-0.4,0-0.5
		l-0.3-0.5c-0.9-2.6-0.4-4.9,1.3-6.2c0.8-0.5,1.6-1.1,2.6-1.2c0.3,0,0.5,0,0.8,0c1.3,0,2.6,0.7,3.2,1.9c0,0,0.5,0.9,0.7,1.9
		c0.1,0,0.3,0.1,0.3,0.3c0.5,0.7,0.5,2.3,0.4,3.4c0,0.1,0.4,0.8,0.4,1.1c0.1,0.1,0.1,0.3,0.1,0.4c0.4,0.9,1.3,1.3,2.6,1.8
		c0.8,0.3,1.6,0.5,2.3,1.1c2.3,1.6,4.3,4.5,5.4,7.3c0,0.1,0.9,2.4,1.2,3.1c2.4,2.6,1.3,7.6,0.9,9.3c1.5,1.3,3.2,3.9,3.4,4.3
		c0.9,1.2,1.9,1.6,1.9,1.6c1.3,0.5,2.3,1.6,3.1,2.4c1.5,1.8,2.8,3.9,3.9,6.3c0,0.1,0.1,0.3,0.3,0.7c0.3,0.5,0.8,2,1.2,2.7
		c1.5,0.1,3.4,1.8,3.9,2.3l0.1,0.1l0.1,0.3c0.1,0.5,0.1,1.1-0.3,1.5c-0.5,0.8-1.9,1.2-3.9,1.2c-0.1,0-0.3,0-0.3,0
		c-0.1,0-0.3,0-0.4,0c-0.8,0-1.5-0.3-2.2-0.8c-0.8-0.8-0.9-1.9-1.1-2.6l-2.6-2.8l-1.8-1.2c-1.8-0.8-3.9-4.3-4.5-5.3l-0.8-0.7
		c-1.2-0.9-3-1.3-3.2-1.3l-0.1,0.3c-0.5,1.5-1.3,1.6-1.9,1.6c-1.1,0-2-1.1-2.4-1.6l-5.1-2.8c-0.1-0.1-0.3-0.1-0.3-0.1
		c-0.3,0-0.7,0.7-0.9,1.2c0.3,0.9,0.8,2.8,0,3.6c1.5,1.1,3.2,3.2,3.9,4l0.9,0.4l0.1,0.1c0.5,0.8,1.9,1.3,2.3,1.6l0.8,0.3
		c0.7-0.3,1.2-0.4,1.6-0.4c0.3,0,0.5,0,0.8,0.1c1.1,0.1,1.6,0.7,1.9,1.1c0.7,1.3-0.3,3.1-0.7,3.6C352.3,440.4,351.7,441,350.6,441z
		 M349.1,413.9c0.4,0.1,0.8,0.4,1.1,0.5c0-0.7-0.1-1.5-0.3-2.3c-0.3-0.1-0.5-0.4-0.8-0.5c0.1,0.4,0.3,0.9,0.3,1.3
		C349.2,413.3,349.1,413.6,349.1,413.9z"/>
	<path class="st0" d="M337,387.2c0.9,0,1.8,0.4,2.3,1.3c0.1,0.3,0.8,2.2,0.4,2.4c0.1-0.1,0.3-0.1,0.4-0.1c0.8,0,0.4,2.7,0.4,2.7
		c0,0.4,0.5,1.5,0.7,1.9c0.8,2,3.5,2,5.1,3.2c2.3,1.6,4.2,4.3,5.1,6.7l1.2,3.2c2.8,2.7,0.5,9.2,0.5,9.2c1.3,0.8,3.8,4.5,3.8,4.5
		c1.1,1.5,2.3,2,2.3,2c1.1,0.5,1.9,1.3,2.7,2.2c1.5,1.9,2.7,3.9,3.8,6.1c0.1,0.4,1.5,3.9,1.9,3.9l0,0c0.1,0,0.1,0,0.1,0
		c1.2,0,3.5,2,3.5,2c0.4,1.3-2.3,1.5-3.2,1.5c-0.1,0-0.3,0-0.3,0c-0.1,0-0.3,0-0.4,0c-2.3,0-2.2-2.8-2.2-2.8l-2.8-3.1l-1.9-1.2
		c-1.6-0.7-4.2-5.1-4.2-5.1l-1.1-0.8c-1.6-1.2-3.8-1.6-3.8-1.6h-0.1c-1.6,0-0.9,0.9-0.9,0.9c-0.3,0.7-0.7,1.1-0.9,1.1
		c-0.8,0-1.8-1.5-1.8-1.5l-5.3-3c-0.3-0.1-0.5-0.3-0.8-0.3c-1.3,0-1.9,2.2-1.9,2.2c0.9,2.7,0.3,3,0.3,3c-2.7,0.5-0.5,0.9-0.5,0.9
		c1.5,0.7,4.6,4.5,4.6,4.5l0.9,0.4c0.9,1.1,2.7,1.9,2.7,1.9l1.2,0.4c0.8-0.4,1.3-0.4,1.6-0.4c0.4,0,0.5,0.1,0.5,0.1
		c2.8,0.1,0.7,3.4,0.7,3.4c-0.1,0.8-0.7,0.9-1.2,0.9c-0.8,0-1.6-0.5-1.6-0.5c-0.1,0-0.1,0-0.3,0c-1.8,0-2.8-2-2.8-2
		c-1.8,0-3.1-1.2-4.6-2c-1.6-0.8-3.5-1.2-5-2.3c-0.7-0.4-1.3-1.1-1.9-1.6c-0.1-0.1-0.4-0.5-0.5-0.7c-1.2-0.7-1.3-1.5-1.3-1.5l-1.9-2
		c-2.4-2-0.4-5.3-0.4-5.3c0-1.6,0.9-3,1.3-4.5s-0.3-3.1-0.3-4.6c-0.1-1.2-0.1-2.4-0.1-3.6c0.4-2.2-0.1-2.4-0.3-2.4
		c-0.1,0-0.1,0-0.1,0c-1.3,1.9-3.2,3.4-3.2,3.4l-1.1,1.5c-0.8,1.8-1.6,1.9-1.9,1.9c-0.1,0-0.1,0-0.1,0v0.4c0.5,0.9,0.4,1.1,0.1,1.1
		c-0.1,0-0.3,0-0.3,0l-1.3-1.1l0.4,1.1c0.3,0.7,0.1,0.8,0,0.8s-0.4-0.1-0.4-0.1l-1.2-1.6c0.4,1.8-0.1,1.8-0.1,1.8l0,0
		c-0.8-0.7-0.4-2.7-0.4-2.7c0-2.2,3.9-2.3,3.9-2.3c-0.1-0.9,0.7-2.3,1.1-3.1c0.7-1.5,1.3-3,2-4.5c-1.1-2.2,0.8-2.7,0.8-2.7
		c0.5-1.6,0.7-3.9,2.7-4.6c0.8-0.3,1.8-0.4,2.6-0.4l-0.1-0.8c-0.8-0.4-0.4-0.9-0.4-0.9l-0.4-0.9c-0.7-1.9-0.5-3.8,1.1-5.1
		c0.7-0.5,1.3-0.8,2.2-0.9C336.6,387.2,336.8,387.2,337,387.2 M347.5,414.5h0.1c1.5,0,3.2,1.8,3.2,1.8c0.5-0.9-0.1-4.9-0.1-4.9
		c-2-0.7-3.9-3.8-3.9-3.8c-0.3,1.2,0.4,3.1,0.4,3.1C349.5,412.9,347.5,414.5,347.5,414.5 M337,385.3c-0.3,0-0.7,0-0.9,0.1
		c-1.1,0.1-2.2,0.7-3,1.3c-2.2,1.6-2.8,4.3-1.8,7.3v0.1v0.1l0.1,0.3c-0.3,0-0.5,0.1-0.7,0.3c-2.6,0.8-3.2,3.4-3.6,5v0.1
		c-0.4,0.3-0.8,0.7-1.1,1.3c-0.3,0.5-0.4,1.5-0.1,2.6c-0.5,1.2-1.1,2.4-1.8,3.6c-0.1,0.1-0.1,0.3-0.3,0.4c-0.3,0.5-0.5,1.1-0.8,1.8
		c-2.2,0.4-3.9,1.8-4,3.8c-0.1,0.9-0.4,3.2,1.1,4.5l0.4,0.4h0.5l0,0l0,0c0.3,0,0.5,0,0.8-0.3c0.3,0.1,0.5,0.1,0.8,0.1
		c0.7,0,1.2-0.3,1.6-0.7c0.7-0.1,1.2-0.4,1.5-1.1c0.3-0.4,0.3-0.9,0.3-1.3c0.5-0.4,0.9-1.1,1.3-1.9l0.8-1.2c0.1-0.1,0.3-0.3,0.4-0.4
		c0,0.7,0,1.2,0.1,1.9c0,0.7,0.1,1.2,0.3,1.8c0.1,0.8,0.3,1.6,0.1,2.3c-0.1,0.4-0.3,0.9-0.5,1.3c-0.4,0.9-0.8,1.9-0.8,3
		c-0.8,1.8-1.5,4.9,0.9,7.1l1.5,1.6c0.3,0.7,0.8,1.5,1.9,2l0,0c0.1,0.1,0.3,0.3,0.4,0.4c0.8,0.8,1.5,1.3,2.2,1.9
		c1.1,0.7,2.3,1.2,3.4,1.6c0.7,0.3,1.2,0.5,1.9,0.8c0.4,0.1,0.7,0.4,1.1,0.7c0.9,0.5,2,1.2,3.2,1.5c0.7,0.9,1.9,2,3.6,2.2
		c0.5,0.3,1.2,0.4,2,0.4c1.5,0,2.6-0.8,3-2c0.5-0.8,1.5-2.8,0.5-4.5c-0.3-0.5-0.9-1.5-2.6-1.6c-0.3-0.1-0.5-0.1-0.9-0.1
		c-0.5,0-1.1,0.1-1.6,0.3l-0.5-0.3c-0.4-0.1-1.5-0.7-1.9-1.3l-0.3-0.4l-0.4-0.1l-0.5-0.3c-0.7-0.8-2-2.4-3.2-3.5
		c0.4-1.1,0-2.4-0.3-3.4c0,0,0-0.1,0.1-0.1l4.6,2.6c0.5,0.8,1.6,1.9,3.1,1.9c0.5,0,1.8-0.1,2.6-1.8c0.5,0.1,1.5,0.5,2.2,1.1l0.7,0.5
		c0.9,1.6,2.8,4.6,4.7,5.5l1.6,1.1l2.3,2.4c0.1,0.8,0.4,1.9,1.2,2.7c0.7,0.7,1.6,1.1,2.8,1.1c0.1,0,0.3,0,0.4,0s0.1,0,0.3,0
		c3.5,0,4.5-1.2,4.7-1.6c0.5-0.7,0.7-1.5,0.4-2.3l-0.1-0.5l-0.4-0.4c-0.7-0.7-2.3-2-3.9-2.4c-0.3-0.4-0.5-1.2-0.9-2.3
		c-0.1-0.3-0.3-0.5-0.3-0.7c-1.1-2.4-2.4-4.6-4-6.5c-0.8-0.9-1.8-2-3.4-2.7l0,0c0,0-0.8-0.4-1.5-1.3c-0.5-0.8-1.9-2.7-3.1-4
		c0.5-2.3,1.3-6.9-1.1-9.6l-1.1-2.8l0,0c-1.2-3.1-3.4-5.9-5.8-7.7c-0.8-0.5-1.8-0.9-2.6-1.2c-1.1-0.4-1.8-0.7-2-1.2
		c0-0.1-0.1-0.3-0.3-0.4c-0.1-0.1-0.3-0.5-0.4-0.8c0.3-2.7-0.4-3.6-0.7-3.9l-0.1-0.1c-0.3-1.1-0.7-1.9-0.7-1.9
		C340.2,386.1,338.7,385.3,337,385.3L337,385.3z"/>
</g>
<g id="XMLID_8_">
	<path class="st1" d="M321.9,436.5c-2.6,0-4.9-1.8-5.5-4.2c-0.8-3,1.1-6.1,4.2-6.9c0.5-0.1,0.9-0.3,1.5-0.3c2.6,0,4.9,1.8,5.5,4.2
		c0.4,1.5,0.1,3-0.7,4.3c-0.8,1.3-2,2.3-3.5,2.7C322.9,436.4,322.4,436.5,321.9,436.5z"/>
	<path class="st0" d="M322,426.1c2.2,0,4,1.3,4.6,3.5c0.7,2.6-0.9,5.1-3.5,5.8c-0.4,0.1-0.8,0.1-1.2,0.1c-2.2,0-4-1.3-4.6-3.5
		c-0.7-2.6,0.9-5.1,3.5-5.8C321.2,426.1,321.6,426.1,322,426.1 M322,424.3L322,424.3c-0.5,0-1.2,0.1-1.8,0.3
		c-3.5,0.9-5.8,4.6-4.9,8.1c0.8,2.8,3.4,4.9,6.5,4.9c0.5,0,1.2-0.1,1.8-0.3c3.5-0.9,5.8-4.6,4.9-8.1
		C327.7,426.3,325.1,424.3,322,424.3L322,424.3z"/>
</g>
<g>
	<path class="st1" d="M412.6,447.1c-1.3,0-2.7-0.6-3.3-1.1c-0.8-0.6-1.1-1.2-1.2-1.8c-0.1-1.2,0.4-2.4,1.7-3.9l0.3-0.4
		c1-1.5,1.4-2.6,1.6-3.2v-0.2c0.1-1.3,0.1-7.2-0.1-8.1l-0.1-0.3c-0.4-1.3-1.3-4.2-0.3-6.9c0.5-1.3,1.2-2.7,2-3.8
		c0.4-0.6,0.7-1.3,1-1.7c0.1-0.4,0.1-0.7,0.2-1c0-0.1,0-0.1,0.1-0.2c-0.1-0.5-0.6-1.8-1-2.9c-0.4,1.4-1.1,2.7-2.4,3.5l-0.1,0.1
		l-0.6,0.2H410c-1.5,0-4.4-0.9-5.9-4.4c-0.7-0.6-1.3-1.3-1.6-2.2l-0.2-0.5c-0.2-0.4-0.3-0.7-0.5-1l-0.3-0.5v-0.1
		c-0.4-0.8-0.2-1.7-0.1-2.4l0.1-0.4c0-0.1,0-0.3,0.1-0.4v-0.1l0,0v-0.1c0.1-0.4,0.2-0.8,0.3-1v-0.1c0-0.3,0-0.8,0.1-1.2
		c-0.8-0.3-1.6-0.8-2.2-1.5v-0.1v-0.1c-0.6-0.9-0.7-1.8-0.6-2.5c-0.5-1.9-0.5-5.3,2.1-7c0.5-0.4,1.1-0.8,1.6-1
		c-1.6-3.7-0.7-6.8,2.6-8.6h0.1h0.1c1.2-0.4,2.1-0.8,3.1-0.8c3.6,0,5.5,3.3,6,5.4v0.1c0.1,0.2,0.3,0.5,0.3,1c0.3-0.1,0.7-0.1,1-0.1
		h1.6c3.4,0,5.8,0.6,7.5,2c1.6,1.3,2.5,3,2.4,4.7c0.4,0.2,0.9,0.5,1.3,0.6h0.1c0.7,0,1.3,0.2,1.9,0.7c1.1,0.8,2.2,1.9,2.6,3.7
		c0.1,1,0.1,2.6,0.1,3.4v0.4c0,0.7-0.2,1.2-0.6,1.6c-0.1,0.7-0.3,1.4-0.4,2c-0.1,0.4-0.2,0.8-0.2,1.1c0.1,0.3,0.1,0.6,0.1,0.9
		c0,0.1,0,0.3-0.1,0.5c0.1,0.3,0,0.7-0.1,1c-0.2,1.1-0.2,1.4-0.2,1.4l0.2,0.3v0.2c0,0.1,0.2,0.6,0.4,0.9l0.2,0.5l0.1,0.2
		c0.4,0.9,0.6,1.5,0.6,1.9c0.2-0.1,0.4-0.2,0.5-0.2s0.2-0.1,0.2-0.1l0,0c0.6-1.3,1.3-2.4,2.1-2.9h0.1l0.3-0.1c0.6-0.4,1.3-0.6,2-0.6
		c0.6,0,1.2,0.2,1.8,0.6c0.7,0.4,1,1,1.3,1.4c0.1,0.1,0.1,0.2,0.2,0.3l0.1,0.1l0.1,0.2c0.1,0.2,0.2,0.4,0.3,0.5l0.1,0.1l0.3,0.4
		c1.3,1.4,2.1,2.8,2.5,4.1c0,0,0,0.1,0.1,0.2c0,0,0,0,0,0.1l0.1,0.1l0.1,0.2c0.5,1.1,0.6,2.1,0.3,3c-0.2,0.8-0.9,1.3-1.9,1.5h-0.1
		h-0.5c-1.3,0-2.2-0.8-2.9-1.5c-0.8-0.8-1.1-0.8-1.1-0.8l0,0c-0.2,0-0.4,0-0.7-0.1c-0.2,0-0.4,0-0.6,0c-0.6,0-2.1,0-4.4,1.7
		l-1.1,0.8l-0.8,0.6c-2.4,1.6-3.9,2.7-5.2,3.2h-0.1h-0.1c-0.5,0.1-1,0.1-1.3,0.1c-1.1,0-2.8-0.5-4.5-2.6l0,0c-0.6,0.9-0.6,1-0.6,1.3
		c0,0.1,0,0.1,0,0.2c0,0.2,0.1,0.3,0.1,0.6v0.2c0.3,1.3,0.8,3,0,4.6c-0.4,1.1-0.9,2.4-1,2.7c-0.1,0.4-0.7,2.8-0.8,5.5
		c-0.1,3.7-1.3,5.1-2.9,6.5C414.7,446.6,413.8,447.1,412.6,447.1z M425.8,403c0.1,0.1,0.3,0.2,0.4,0.3c0-0.4,0-0.7,0-0.9
		c-0.1-0.4-0.1-0.6-0.1-1c0-0.2,0-0.4,0-0.6c-0.2,0-0.4-0.1-0.6-0.2c-0.2,0-0.4,0-0.7,0c0,0.1,0,0.3,0,0.5c0.1,0.2,0.3,0.6,0.6,1
		l0.1,0.1C425.5,402.2,425.8,403,425.8,403z"/>
	<path class="st0" d="M408.8,380.5c3.1,0,4.7,3,5,4.7c0.1,0.3,0.3,0.5,0.3,0.9c0,0.1,0,0.3-0.1,0.3c0.1,0.3,0.1,0.5,0.3,0.8
		c0.4-0.1,1.1-0.3,1.8-0.3c0.5,0,1.1,0,1.6,0c3,0,5.3,0.5,6.9,1.8c1.9,1.5,2.2,3.2,1.9,4.5c0.7,0.4,1.5,0.9,2.2,1.1
		c0.1,0,0.1,0,0.3,0c0.4,0,0.8,0.1,1.3,0.5c0.9,0.7,1.9,1.6,2.2,3.1c0.1,0.9,0.1,2.4,0.1,3.2c0,0.3,0,0.4,0,0.4
		c0,0.4-0.1,0.8-0.5,1.1c-0.3,1.5-0.7,3-0.8,3.6c0.1,0.3,0.1,0.5,0.1,0.9c0,0.1,0,0.3-0.1,0.4c0.1,0.3,0.1,0.5,0,0.8
		c-0.3,1.3-0.3,1.9-0.1,2.2c0,0.3,0.4,1.1,0.7,1.8c0.5,1.3,0.7,1.8,0.7,2.2c-0.1,0.5-0.4,0.8-0.7,0.9c0,0.1,0,0.1,0,0.3
		c0.7-0.1,1.3-0.4,1.9-0.7c0.8-0.4,1.2-0.5,1.3-0.7c0.4-0.8,1.1-2.3,1.8-2.7l0.3-0.1c0.4-0.3,0.9-0.5,1.5-0.5c0.4,0,0.8,0.1,1.2,0.4
		c0.7,0.4,0.9,1.1,1.2,1.5c0.1,0.3,0.3,0.7,0.5,0.9l0.3,0.4c0.8,0.9,1.9,2.3,2.3,3.8c0.1,0.3,0.1,0.5,0.3,0.7
		c0.4,0.9,0.5,1.6,0.3,2.3c-0.1,0.4-0.5,0.7-1.1,0.8c-0.1,0-0.3,0-0.4,0c-0.8,0-1.5-0.5-2.2-1.2c-0.5-0.5-1.2-1.1-1.8-1.1
		c-0.4,0-0.8-0.1-1.3-0.1c-0.9,0-2.6,0.1-5,1.9l-1.1,0.8c-2.8,1.9-4.5,3.1-5.8,3.6c-0.4,0.1-0.8,0.1-1.1,0.1c-0.9,0-2.3-0.4-3.8-2.4
		c-0.3-0.4-0.5-0.7-0.7-1.1c-0.3,0.4-0.5,0.9-0.8,1.3c-0.7,1.1-0.8,1.3-0.8,1.9c0,0.3,0.1,0.5,0.1,0.9c0.3,1.2,0.8,2.8,0.1,4.2
		c-0.5,1.3-1.1,2.8-1.1,2.8s-0.7,2.7-0.8,5.8c-0.1,3.5-1.2,4.6-2.7,5.9c-0.4,0.7-1.1,1-1.9,1c-1.1,0-2.2-0.5-2.7-0.9
		s-0.8-0.8-0.8-1.1c-0.1-0.9,0.4-1.9,1.5-3.2l0.3-0.4c1.3-1.9,1.6-3.2,1.8-3.8c0.1-1.1,0.1-7.4-0.1-8.5l-0.1-0.4
		c-0.4-1.3-1.2-3.9-0.3-6.3c0.5-1.3,1.2-2.6,1.9-3.6c0.5-0.8,0.9-1.6,1.1-2c0.1-0.8,0.3-1.2,0.3-1.5c-0.1-0.5-0.7-2.3-1.1-3.4
		c-0.3-0.8-0.3-1.3-0.3-1.8c-0.4-0.4-0.9-1.2-1.6-2.3c0.7,2.6,0.3,5.9-1.9,7.3l-0.3,0.1H410c-1.2,0-3.8-0.8-5.1-4
		c-0.4-0.3-1.1-0.9-1.5-1.9c-0.3-0.7-0.5-1.2-0.7-1.6l-0.3-0.5c-0.3-0.7-0.1-1.5,0-2.3c0-0.1,0.1-0.4,0.1-0.5
		c0.1-0.5,0.3-0.8,0.4-1.1c0-0.5,0-1.3,0.3-2c-0.9-0.3-2-0.8-2.6-1.5c-0.5-0.8-0.5-1.6-0.4-2c-0.3-1.1-0.8-4.5,1.6-6.1
		c0.9-0.7,1.9-1.1,2.4-1.3v-0.1c-1.9-3.6-1.2-6.5,1.8-8.2C407.1,380.8,407.9,380.5,408.8,380.5 M427.2,406.1c0-0.1,0.1-0.1,0.1-0.3
		c0-0.4,0.1-1.2,0-2s-0.1-1.2-0.1-1.5c-0.1-0.3-0.1-0.4-0.1-0.8c0-0.3,0-1.1-0.1-1.5h-0.1c-0.3,0-0.8,0-1.1-0.3c-0.1,0-0.1,0-0.3,0
		c-0.5,0-1.3,0-2-0.3c0.1,0.5,0.4,1.2,0.3,1.8c0,0.3,0.5,1.1,0.8,1.5c0.2,0.5,0.3,0.8,0.4,1C425.5,404,426.5,404.6,427.2,406.1
		 M426.7,413.5c-0.3,0.4-0.4,0.5-0.4,0.5c0,0.1,0,0.7,0.3,1.6c0.1,0.5,0.3,0.9,0.4,1.3c0.3-0.1,0.7-0.3,1.1-0.4
		c-0.1-0.1-0.1-0.3-0.1-0.4h-0.1c-0.3,0-0.5-0.1-0.8-0.4C426.7,415.2,426.6,414.1,426.7,413.5 M408.8,378.5c-1.2,0-2.2,0.4-3.4,0.8
		h-0.1l-0.2,0.1l-0.1,0.1c-3.5,2-4.7,5.3-3.4,9c-0.3,0.2-0.7,0.4-1,0.7c-2.7,1.9-3,5.3-2.5,7.8c-0.1,0.7,0,1.8,0.7,3l0.1,0.1
		l0.1,0.1c0.5,0.6,1.2,1,1.8,1.4c0,0.1,0,0.3,0,0.4c-0.1,0.3-0.3,0.6-0.4,1.1v0.2l0,0c0,0.1-0.1,0.3-0.1,0.5c0,0.1,0,0.2,0,0.3
		c-0.1,0.8-0.3,1.9,0.2,3l0.1,0.1l0.1,0.1l0.3,0.4c0.1,0.2,0.2,0.5,0.4,0.9l0.2,0.5c0.4,0.9,0.9,1.7,1.7,2.4c1.7,3.7,5,4.8,6.7,4.8
		h0.3h0.3l0.3-0.1l0.3-0.1l0.2-0.1l0.2-0.1c0.7-0.4,1.3-1,1.7-1.6c0,0.1,0,0.2,0.1,0.2c-0.1,0.2-0.1,0.5-0.2,0.8
		c-0.2,0.4-0.5,1-0.8,1.5c-0.8,1.2-1.6,2.6-2.1,4c-1.1,3-0.2,6.1,0.2,7.6l0.1,0.3c0.1,1,0.2,6.3,0.1,7.7l0,0c-0.2,0.6-0.5,1.6-1.4,3
		l-0.2,0.3c-1,1.2-2.1,2.8-1.9,4.6c0,0.9,0.6,1.7,1.5,2.5c0.8,0.7,2.4,1.3,3.9,1.3c1.4,0,2.7-0.6,3.4-1.7c1.7-1.5,3.1-3.1,3.2-7.2
		c0.1-2.5,0.6-4.7,0.7-5.2c0.2-0.4,0.6-1.6,1-2.6c0.9-1.9,0.4-3.9,0.1-5.2v-0.1c1.5,1.3,3,1.7,4,1.7c0.4,0,0.9,0,1.6-0.2h0.1h0.1
		c1.4-0.5,2.9-1.6,5.4-3.3l0.8-0.6l0,0l0,0l1.1-0.8c2-1.5,3.3-1.5,3.8-1.5c0.1,0,0.3,0,0.5,0s0.4,0,0.6,0.1c0.1,0.1,0.3,0.2,0.6,0.5
		c0.8,0.8,2,1.8,3.6,1.8h0.4h0.2h0.2c1.4-0.2,2.4-1.1,2.7-2.3c0.4-1.5,0-2.8-0.4-3.6l-0.2-0.3l0,0v-0.1c-0.4-1.4-1.3-2.9-2.7-4.5
		l-0.3-0.3l-0.1-0.1l0,0c0,0-0.1-0.1-0.1-0.2l-0.1-0.3l-0.2-0.3c0,0-0.1-0.1-0.1-0.2c-0.3-0.5-0.7-1.2-1.6-1.8
		c-0.7-0.5-1.5-0.7-2.3-0.7c-0.9,0-1.7,0.2-2.4,0.7l0,0l-0.2,0.1l-0.2,0.1c-0.8,0.5-1.4,1.3-1.9,2.3c0-0.1-0.1-0.2-0.1-0.4l-0.1-0.2
		l0,0l0,0c-0.1-0.2-0.2-0.4-0.2-0.5c-0.1-0.2-0.2-0.5-0.3-0.7v-0.4l-0.1-0.2c0-0.2,0.1-0.4,0.2-0.9c0.1-0.4,0.2-0.8,0.1-1.2
		c0-0.2,0-0.3,0-0.5c0-0.3,0-0.6-0.1-0.9c0.1-0.2,0.1-0.5,0.2-0.9c0.1-0.5,0.3-1.1,0.4-1.7c0.4-0.5,0.7-1.1,0.7-2.1v-0.4
		c0-0.8,0-2.4-0.1-3.4v-0.1v-0.1c-0.4-2.1-1.7-3.3-2.9-4.3c-0.8-0.6-1.6-0.9-2.5-0.9c-0.1-0.1-0.3-0.1-0.4-0.2c-0.1-1.8-1-3.6-2.8-5
		c-1.9-1.5-4.5-2.2-8.1-2.2h-1.6c-0.1,0-0.2,0-0.2,0c-0.1-0.1-0.1-0.2-0.1-0.3C415.2,382.1,412.9,378.5,408.8,378.5L408.8,378.5z"/>
</g>
<path class="st1" d="M159.2,332.5h-2.6v26.6c0,0,4.4-3.6,4.5-3.3s1.1-12.1,1.1-12.1l-0.9-9.4L159.2,332.5z"/>
</svg>
